<svg width="100" height="100" viewBox="0 0 100 100" fill="none" xmlns="http://www.w3.org/2000/svg">
<g clip-path="url(#clip0_627_40)">
<path d="M17.7083 8.06015e-06H82.2917C84.6178 -0.00224053 86.9215 0.466009 89.0709 1.37796C91.2204 2.28991 93.1734 3.62765 94.8182 5.31463C96.463 7.00162 97.7674 9.00471 98.6565 11.2093C99.5457 13.4139 100.002 15.7766 100 18.1624V81.8376C100.002 84.2234 99.5457 86.5861 98.6565 88.7907C97.7674 90.9953 96.463 92.9984 94.8182 94.6854C93.1734 96.3723 91.2204 97.7101 89.0709 98.622C86.9215 99.534 84.6178 100.002 82.2917 100H17.7083C15.3822 100.002 13.0785 99.534 10.9291 98.622C8.7796 97.7101 6.82658 96.3723 5.18177 94.6854C3.53696 92.9984 2.23266 90.9953 1.34351 88.7907C0.454359 86.5861 -0.00218452 84.2234 7.85865e-06 81.8376V18.1624C-0.00218452 15.7766 0.454359 13.4139 1.34351 11.2093C2.23266 9.00471 3.53696 7.00162 5.18177 5.31463C6.82658 3.62765 8.7796 2.28991 10.9291 1.37796C13.0785 0.466009 15.3822 -0.00224053 17.7083 8.06015e-06Z" fill="#D9DEFF"/>
<path d="M85.084 70.3431C85.6489 69.3645 86 68.2619 86 67.2718V32.9026C86 31.9125 85.6494 30.8101 85.0842 29.8315L50 50.0873L85.084 70.3431Z" fill="#3C49A4"/>
<path d="M53.1177 89.8563L82.8824 72.6719C83.7398 72.1768 84.5191 71.322 85.084 70.3432L50 50.0874L14.916 70.3434C15.481 71.322 16.2605 72.177 17.1177 72.6719L46.8824 89.8563C48.597 90.8465 51.4031 90.8465 53.1177 89.8563Z" fill="#2C368E"/>
<path d="M85.0842 29.8314C84.5191 28.8526 83.7395 27.9978 82.8824 27.5027L53.1176 10.3183C51.4031 9.32815 48.5969 9.32815 46.8824 10.3183L17.1176 27.5027C15.4028 28.4926 14 30.9227 14 32.9027V67.2719C14 68.262 14.3508 69.3646 14.916 70.3432L50 50.0874L85.0842 29.8314Z" fill="#606CB9"/>
<path d="M50 74.0874C36.7664 74.0874 26 63.321 26 50.0874C26 36.8538 36.7664 26.0874 50 26.0874C58.5393 26.0874 66.5033 30.6827 70.7838 38.0799L60.3972 44.0902C58.2548 40.3876 54.2706 38.0874 50 38.0874C43.3831 38.0874 38 43.4705 38 50.0874C38 56.7041 43.3831 62.0874 50 62.0874C54.2711 62.0874 58.2553 59.7872 60.3979 56.0839L70.7845 62.094C66.504 69.4919 58.5398 74.0874 50 74.0874Z" fill="white"/>
</g>
<defs>
<clipPath id="clip0_627_40">
<rect width="100" height="100" rx="50" fill="white"/>
</clipPath>
</defs>
</svg>
