<svg width="100" height="100" viewBox="0 0 100 100" fill="none" xmlns="http://www.w3.org/2000/svg">
<g clip-path="url(#clip0_630_64)">
<path d="M17.7083 8.06015e-06H82.2917C84.6178 -0.00224053 86.9215 0.466009 89.0709 1.37796C91.2204 2.28991 93.1734 3.62765 94.8182 5.31463C96.463 7.00162 97.7674 9.00472 98.6565 11.2093C99.5457 13.4139 100.002 15.7766 100 18.1624V81.8376C100.002 84.2234 99.5457 86.5861 98.6565 88.7907C97.7674 90.9953 96.463 92.9984 94.8182 94.6854C93.1734 96.3723 91.2204 97.7101 89.0709 98.622C86.9215 99.534 84.6178 100.002 82.2917 100H17.7083C15.3822 100.002 13.0785 99.534 10.9291 98.622C8.7796 97.7101 6.82658 96.3723 5.18177 94.6854C3.53696 92.9984 2.23266 90.9953 1.34351 88.7907C0.454359 86.5861 -0.00218452 84.2234 7.85865e-06 81.8376V18.1624C-0.00218452 15.7766 0.454359 13.4139 1.34351 11.2093C2.23266 9.00472 3.53696 7.00162 5.18177 5.31463C6.82658 3.62765 8.7796 2.28991 10.9291 1.37796C13.0785 0.466009 15.3822 -0.00224053 17.7083 8.06015e-06Z" fill="#BBDCFF"/>
<path d="M85.084 70.3426C85.6489 69.364 86 68.2614 86 67.2713V32.9021C86 31.912 85.6494 30.8096 85.0842 29.8311L50 50.0868L85.084 70.3426Z" fill="#00599C"/>
<path d="M53.1177 89.8559L82.8824 72.6714C83.7398 72.1763 84.5191 71.3215 85.084 70.3427L50 50.0869L14.916 70.3429C15.481 71.3215 16.2605 72.1766 17.1177 72.6714L46.8824 89.8559C48.597 90.846 51.4031 90.846 53.1177 89.8559Z" fill="#004482"/>
<path d="M85.0842 29.831C84.5191 28.8521 83.7395 27.9973 82.8823 27.5023L53.1176 10.3178C51.4031 9.32767 48.5969 9.32767 46.8823 10.3178L17.1176 27.5023C15.4028 28.4921 14 30.9223 14 32.9023V67.2714C14 68.2615 14.3508 69.3641 14.916 70.3427L50 50.087L85.0842 29.831Z" fill="#659AD2"/>
<path d="M50 74.0869C36.7664 74.0869 26 63.3206 26 50.0869C26 36.8533 36.7664 26.0869 50 26.0869C58.5393 26.0869 66.5033 30.6822 70.7838 38.0794L60.3972 44.0897C58.2548 40.3871 54.2706 38.0869 50 38.0869C43.3831 38.0869 38 43.47 38 50.0869C38 56.7036 43.3831 62.0869 50 62.0869C54.2711 62.0869 58.2553 59.7867 60.3979 56.0834L70.7845 62.0935C66.504 69.4914 58.5398 74.0869 50 74.0869Z" fill="white"/>
<path d="M74 48.7535H71.3332V46.0869H68.6668V48.7535H66V51.4201H68.6668V54.0869H71.3332V51.4201H74V48.7535Z" fill="white"/>
<path d="M84 48.7535H81.3332V46.0869H78.6668V48.7535H76V51.4201H78.6668V54.0869H81.3332V51.4201H84V48.7535Z" fill="white"/>
</g>
<defs>
<clipPath id="clip0_630_64">
<rect width="100" height="100" rx="50" fill="white"/>
</clipPath>
</defs>
</svg>
