<svg width="100" height="100" viewBox="0 0 100 100" fill="none" xmlns="http://www.w3.org/2000/svg">
<g opacity="0.6">
<g clip-path="url(#clip0_630_76)">
<path d="M17.7083 8.06015e-06H82.2917C84.6178 -0.00224053 86.9215 0.466009 89.0709 1.37796C91.2204 2.28991 93.1734 3.62765 94.8182 5.31463C96.463 7.00162 97.7674 9.00472 98.6565 11.2093C99.5457 13.4139 100.002 15.7766 100 18.1624V81.8376C100.002 84.2234 99.5457 86.5861 98.6565 88.7907C97.7674 90.9953 96.463 92.9984 94.8182 94.6854C93.1734 96.3723 91.2204 97.7101 89.0709 98.622C86.9215 99.534 84.6178 100.002 82.2917 100H17.7083C15.3822 100.002 13.0785 99.534 10.9291 98.622C8.7796 97.7101 6.82658 96.3723 5.18177 94.6854C3.53696 92.9984 2.23266 90.9953 1.34351 88.7907C0.454359 86.5861 -0.00218452 84.2234 7.85865e-06 81.8376V18.1624C-0.00218452 15.7766 0.454359 13.4139 1.34351 11.2093C2.23266 9.00472 3.53696 7.00162 5.18177 5.31463C6.82658 3.62765 8.7796 2.28991 10.9291 1.37796C13.0785 0.466009 15.3822 -0.00224053 17.7083 8.06015e-06Z" fill="#E5D3FF"/>
<path d="M85.9963 32.8198C85.9958 31.4574 85.7048 30.2537 85.1163 29.2208C84.5382 28.2046 83.6725 27.353 82.5113 26.6798C72.9261 21.1462 63.3316 15.6296 53.7496 10.0904C51.1663 8.5972 48.6616 8.65192 46.0975 10.1665C42.2823 12.419 23.1809 23.3758 17.489 26.6767C15.1449 28.0356 14.0042 30.1149 14.0037 32.8172C14 43.9455 14.0037 55.0739 14 66.2022C14 67.5346 14.2792 68.7153 14.8417 69.7326C15.4201 70.7793 16.2979 71.6542 17.4859 72.3427C23.1781 75.6436 42.282 86.5996 46.0963 88.8529C48.6616 90.3683 51.1663 90.4225 53.7504 88.929C63.3328 83.3895 72.9278 77.8729 82.5144 72.3394C83.7024 71.6511 84.5802 70.7757 85.1585 69.7298C85.7203 68.7122 86 67.5318 86 66.1991C86 66.1991 86 43.9484 85.9963 32.8198Z" fill="#A179DC"/>
<path d="M50.1097 49.4014L14.8413 69.7327C15.4197 70.7794 16.2975 71.6544 17.4854 72.3428C23.1777 75.6437 42.2815 86.5997 46.0959 88.853C48.6612 90.3685 51.1658 90.4226 53.75 88.9291C63.3323 83.3897 72.9274 77.873 82.514 72.3395C83.7019 71.6513 84.5797 70.7758 85.1581 69.7299L50.1097 49.4014Z" fill="#280068"/>
<path d="M85.9965 32.8197C85.996 31.4574 85.705 30.2536 85.1165 29.2207L50.1104 49.4015L85.1587 69.7297C85.7205 68.7121 85.9996 67.5317 86.0002 66.199C86.0002 66.199 86.0002 43.9483 85.9965 32.8197Z" fill="#390091"/>
<path d="M70.875 41.8008V45.6011H74.6708V41.8008H76.5686V45.6011H80.3644V47.5013H76.5686V51.3014H80.3644V53.2016H76.5686V57.0019H74.6708V53.2016H70.875V57.0019H68.9771V53.2016H65.1816V51.3014H68.9771V47.5013H65.1816V45.6011H68.9771V41.8008H70.875ZM74.6708 47.501H70.875V51.3014H74.6708V47.501Z" fill="white"/>
<path d="M50.1875 22.7151C60.088 22.7151 68.7317 28.0984 73.3616 36.1001L73.3165 36.0231L61.6678 42.7382C59.373 38.8479 55.1659 36.2223 50.3394 36.1681L50.1873 36.1673C42.8276 36.1673 36.861 42.1411 36.861 49.5097C36.8585 51.8322 37.4646 54.1147 38.6186 56.1294C40.9156 60.1444 45.2339 62.8524 50.1875 62.8524C55.1718 62.8524 59.5147 60.11 61.7999 56.0522L61.7444 56.1495L73.3754 62.8956C68.7962 70.8297 60.2708 76.1963 50.4856 76.3032L50.1875 76.3048C40.2558 76.3048 31.5876 70.8883 26.9693 62.8442C24.7148 58.9172 23.4248 54.3646 23.4248 49.5097C23.4248 34.7116 35.4065 22.7148 50.1873 22.7148L50.1875 22.7151Z" fill="white"/>
</g>
</g>
<defs>
<clipPath id="clip0_630_76">
<rect width="100" height="100" rx="50" fill="white"/>
</clipPath>
</defs>
</svg>
