<svg width="100" height="100" viewBox="0 0 100 100" fill="none" xmlns="http://www.w3.org/2000/svg">
<g clip-path="url(#clip0_630_85)">
<path d="M17.7083 8.06015e-06H82.2917C84.6178 -0.00224053 86.9215 0.466009 89.0709 1.37796C91.2204 2.28991 93.1734 3.62765 94.8182 5.31463C96.463 7.00162 97.7674 9.00472 98.6565 11.2093C99.5457 13.4139 100.002 15.7766 100 18.1624V81.8376C100.002 84.2234 99.5457 86.5861 98.6565 88.7907C97.7674 90.9953 96.463 92.9984 94.8182 94.6854C93.1734 96.3723 91.2204 97.7101 89.0709 98.622C86.9215 99.534 84.6178 100.002 82.2917 100H17.7083C15.3822 100.002 13.0785 99.534 10.9291 98.622C8.7796 97.7101 6.82658 96.3723 5.18177 94.6854C3.53696 92.9984 2.23266 90.9953 1.34351 88.7907C0.454359 86.5861 -0.00218452 84.2234 7.85865e-06 81.8376V18.1624C-0.00218452 15.7766 0.454359 13.4139 1.34351 11.2093C2.23266 9.00472 3.53696 7.00162 5.18177 5.31463C6.82658 3.62765 8.7796 2.28991 10.9291 1.37796C13.0785 0.466009 15.3822 -0.00224053 17.7083 8.06015e-06Z" fill="#CCE8FF"/>
<path fill-rule="evenodd" clip-rule="evenodd" d="M73.0401 76.8843L70.2333 85.3169L44.8564 86.0003L32.3052 72.3081V36.1494L52.6726 56.5169L73.0401 76.8843Z" fill="#2BB7F6"/>
<path fill-rule="evenodd" clip-rule="evenodd" d="M76.292 73.2349L35.3618 32.3047H72.3076L85.9998 44.8559L85.3164 70.2267L76.292 73.2349Z" fill="#01579B"/>
<path fill-rule="evenodd" clip-rule="evenodd" d="M27.4237 31.5791V64.4001L24.2875 63.3689L14 51.7147L27.4237 31.5791Z" fill="#01579B"/>
<path fill-rule="evenodd" clip-rule="evenodd" d="M64.4001 27.4237H31.5791L51.7147 14L63.3689 24.2875L64.4001 27.4237Z" fill="#41C4FF"/>
</g>
<defs>
<clipPath id="clip0_630_85">
<rect width="100" height="100" rx="50" fill="white"/>
</clipPath>
</defs>
</svg>
