<svg width="100" height="100" viewBox="0 0 100 100" fill="none" xmlns="http://www.w3.org/2000/svg">
<g opacity="0.6">
<g clip-path="url(#clip0_630_93)">
<path d="M17.7083 8.06015e-06H82.2917C84.6178 -0.00224053 86.9215 0.466009 89.0709 1.37796C91.2204 2.28991 93.1734 3.62765 94.8182 5.31463C96.463 7.00162 97.7674 9.00472 98.6565 11.2093C99.5457 13.4139 100.002 15.7766 100 18.1624V81.8376C100.002 84.2234 99.5457 86.5861 98.6565 88.7907C97.7674 90.9953 96.463 92.9984 94.8182 94.6854C93.1734 96.3723 91.2204 97.7101 89.0709 98.622C86.9215 99.534 84.6178 100.002 82.2917 100H17.7083C15.3822 100.002 13.0785 99.534 10.9291 98.622C8.7796 97.7101 6.82658 96.3723 5.18177 94.6854C3.53696 92.9984 2.23266 90.9953 1.34351 88.7907C0.454359 86.5861 -0.00218452 84.2234 7.85865e-06 81.8376V18.1624C-0.00218452 15.7766 0.454359 13.4139 1.34351 11.2093C2.23266 9.00472 3.53696 7.00162 5.18177 5.31463C6.82658 3.62765 8.7796 2.28991 10.9291 1.37796C13.0785 0.466009 15.3822 -0.00224053 17.7083 8.06015e-06Z" fill="#CCFFFA"/>
<path d="M14.5185 44.2714C14.3589 44.2714 14.319 44.1916 14.3988 44.0719L15.2368 42.9944C15.3166 42.8747 15.5161 42.7949 15.6757 42.7949H29.9217C30.0813 42.7949 30.1212 42.9146 30.0414 43.0343L29.3631 44.0719C29.2832 44.1916 29.0837 44.3113 28.964 44.3113L14.5185 44.2714Z" fill="#2DBCAF"/>
<path d="M8.49312 47.9428C8.3335 47.9428 8.29359 47.863 8.3734 47.7433L9.2114 46.6658C9.29121 46.5461 9.49073 46.4663 9.65035 46.4663H27.8469C28.0065 46.4663 28.0863 46.586 28.0464 46.7057L27.7272 47.6634C27.6873 47.8231 27.5277 47.9029 27.368 47.9029L8.49312 47.9428Z" fill="#2DBCAF"/>
<path d="M18.1499 51.6142C17.9902 51.6142 17.9503 51.4945 18.0301 51.3747L18.5888 50.3771C18.6686 50.2574 18.8282 50.1377 18.9879 50.1377H26.9688C27.1284 50.1377 27.2082 50.2574 27.2082 50.417L27.1284 51.3747C27.1284 51.5344 26.9688 51.6541 26.8491 51.6541L18.1499 51.6142Z" fill="#2DBCAF"/>
<path d="M59.571 43.5533C57.057 44.1918 55.3411 44.6706 52.867 45.3091C52.2685 45.4687 52.2286 45.5086 51.7098 44.9101C51.1112 44.2317 50.6723 43.7927 49.8343 43.3937C47.3203 42.1566 44.8861 42.5158 42.6115 43.9923C39.898 45.7481 38.5013 48.3419 38.5412 51.5742C38.5811 54.7665 40.7759 57.4002 43.9284 57.8392C46.6419 58.1983 48.9165 57.2406 50.7122 55.2055C51.0713 54.7665 51.3906 54.2877 51.7896 53.729C50.353 53.729 48.5573 53.729 44.088 53.729C43.25 53.729 43.0505 53.2102 43.3298 52.5319C43.8486 51.2948 44.8063 49.2198 45.3649 48.1823C45.4847 47.9428 45.764 47.5438 46.3626 47.5438C48.3977 47.5438 55.8998 47.5438 60.8879 47.5438C60.8081 48.6212 60.8081 49.6986 60.6485 50.7761C60.2095 53.6492 59.1321 56.2829 57.3763 58.5974C54.5031 62.3883 50.7521 64.7427 46.0034 65.3812C42.0928 65.8999 38.4614 65.1418 35.2691 62.7475C32.3161 60.5128 30.6401 57.5599 30.2012 53.8886C29.6824 49.539 30.9593 45.6284 33.5931 42.1965C36.4263 38.4854 40.1773 36.131 44.7664 35.293C48.5174 34.6147 52.1088 35.0536 55.3411 37.2484C57.4561 38.645 58.9725 40.5605 59.9701 42.8749C60.2095 43.2341 60.0499 43.4336 59.571 43.5533Z" fill="#2DBCAF"/>
<path d="M72.7796 65.6207C69.1483 65.5409 65.8362 64.5034 63.0429 62.1091C60.6885 60.074 59.212 57.4802 58.7332 54.4075C58.0149 49.8983 59.252 45.9078 61.9655 42.3563C64.8785 38.5254 68.3901 36.5302 73.1388 35.6922C77.2091 34.9739 81.0399 35.373 84.5116 37.7273C87.6641 39.8822 89.6194 42.7952 90.1382 46.6261C90.8166 52.0132 89.2603 56.4027 85.5492 60.1538C82.9154 62.8274 79.6832 64.5034 75.972 65.2616C74.8946 65.4611 73.8172 65.501 72.7796 65.6207ZM82.277 49.4992C82.2371 48.9805 82.2371 48.5814 82.1573 48.1824C81.439 44.2318 77.8076 41.9971 74.0167 42.875C70.3056 43.713 67.9113 46.0674 67.0334 49.8185C66.3151 52.931 67.8315 56.0835 70.7046 57.3604C72.8994 58.3182 75.0941 58.1985 77.2091 57.121C80.3615 55.4849 82.0774 52.931 82.277 49.4992Z" fill="#2DBCAF"/>
</g>
</g>
<defs>
<clipPath id="clip0_630_93">
<rect width="100" height="100" rx="50" fill="white"/>
</clipPath>
</defs>
</svg>
