<svg width="101" height="100" viewBox="0 0 101 100" fill="none" xmlns="http://www.w3.org/2000/svg">
<g clip-path="url(#clip0_630_118)">
<path d="M18.0418 8.06015e-06H82.6252C84.9513 -0.00224053 87.255 0.466009 89.4044 1.37796C91.5539 2.28991 93.5069 3.62765 95.1517 5.31463C96.7965 7.00162 98.1008 9.00471 98.99 11.2093C99.8792 13.4139 100.336 15.7766 100.333 18.1624V81.8376C100.336 84.2234 99.8792 86.5861 98.99 88.7907C98.1008 90.9953 96.7965 92.9984 95.1517 94.6854C93.5069 96.3723 91.5539 97.7101 89.4044 98.622C87.255 99.534 84.9513 100.002 82.6252 100H18.0418C15.7157 100.002 13.412 99.534 11.2626 98.622C9.11309 97.7101 7.16007 96.3723 5.51526 94.6854C3.87046 92.9984 2.56616 90.9953 1.67701 88.7907C0.787855 86.5861 0.331312 84.2234 0.333504 81.8376V18.1624C0.331312 15.7766 0.787855 13.4139 1.67701 11.2093C2.56616 9.00471 3.87046 7.00162 5.51526 5.31463C7.16007 3.62765 9.11309 2.28991 11.2626 1.37796C13.412 0.466009 15.7157 -0.00224053 18.0418 8.06015e-06Z" fill="#FFE8D3"/>
<path d="M41.1061 68.6777C41.1061 68.6777 38.4901 70.199 42.9678 70.7138C48.3923 71.3326 51.1648 71.2439 57.1426 70.1125C57.1426 70.1125 58.7143 71.0979 60.9092 71.9515C47.5084 77.6948 30.5804 71.6188 41.1061 68.6777Z" fill="#5382A1"/>
<path d="M39.4685 61.1831C39.4685 61.1831 36.5345 63.355 41.0154 63.8184C46.8101 64.4162 51.3863 64.4651 59.3048 62.9404C59.3048 62.9404 60.4001 64.0507 62.1223 64.658C45.9198 69.3958 27.8733 65.0316 39.4685 61.1831Z" fill="#5382A1"/>
<path d="M53.2732 48.4694C56.5752 52.271 52.4057 55.6919 52.4057 55.6919C52.4057 55.6919 60.7899 51.3637 56.9394 45.9438C53.3432 40.8894 50.5853 38.378 65.5152 29.7192C65.5152 29.7192 42.0802 35.5722 53.2732 48.4694Z" fill="#E76F00"/>
<path d="M70.9971 74.2216C70.9971 74.2216 72.9329 75.8166 68.8651 77.0506C61.1299 79.3939 36.6706 80.1015 29.8758 77.144C27.4333 76.0814 32.0137 74.6068 33.4546 74.2974C34.9572 73.9716 35.8159 74.0323 35.8159 74.0323C33.0996 72.1187 18.2586 77.7896 28.2775 79.4136C55.6002 83.8446 78.0842 77.4184 70.9971 74.2216Z" fill="#5382A1"/>
<path d="M42.3641 53.4179C42.3641 53.4179 29.9226 56.373 37.9583 57.4461C41.3512 57.9003 48.1149 57.7976 54.4151 57.2697C59.564 56.8353 64.7341 55.9119 64.7341 55.9119C64.7341 55.9119 62.9186 56.6894 61.6051 57.5863C48.9708 60.9091 24.5639 59.3633 31.5903 55.9645C37.5326 53.092 42.3641 53.4179 42.3641 53.4179Z" fill="#5382A1"/>
<path d="M64.6829 65.8931C77.5262 59.2192 71.588 52.8057 67.4432 53.6697C66.4273 53.8812 65.9743 54.0644 65.9743 54.0644C65.9743 54.0644 66.3514 53.4736 67.0718 53.2179C75.2715 50.3351 81.5776 61.7202 64.4248 66.2294C64.4248 66.2296 64.6235 66.0519 64.6829 65.8931Z" fill="#5382A1"/>
<path d="M56.9398 15.7378C56.9398 15.7378 64.0526 22.853 50.1936 33.7942C39.0801 42.5709 47.6593 47.5751 50.189 53.2926C43.7018 47.4397 38.9411 42.2873 42.135 37.4919C46.8228 30.4527 59.8096 27.0399 56.9398 15.7378Z" fill="#E76F00"/>
<path d="M43.6263 83.9776C55.9542 84.7668 74.8851 83.5398 75.3335 77.7065C75.3335 77.7065 74.4717 79.9179 65.1451 81.674C54.623 83.6542 41.6454 83.423 33.9482 82.1539C33.9484 82.1538 35.5239 83.458 43.6263 83.9776Z" fill="#5382A1"/>
</g>
<defs>
<clipPath id="clip0_630_118">
<rect x="0.333496" width="100" height="100" rx="50" fill="white"/>
</clipPath>
</defs>
</svg>
