<svg width="101" height="100" viewBox="0 0 101 100" fill="none" xmlns="http://www.w3.org/2000/svg">
<g clip-path="url(#clip0_630_115)">
<path d="M18.3748 8.06015e-06H82.9582C85.2843 -0.00224053 87.588 0.466009 89.7374 1.37796C91.8869 2.28991 93.8399 3.62765 95.4847 5.31463C97.1295 7.00162 98.4339 9.00471 99.323 11.2093C100.212 13.4139 100.669 15.7766 100.667 18.1624V81.8376C100.669 84.2234 100.212 86.5861 99.323 88.7907C98.4339 90.9953 97.1295 92.9984 95.4847 94.6854C93.8399 96.3723 91.8869 97.7101 89.7374 98.622C87.588 99.534 85.2843 100.002 82.9582 100H18.3748C16.0487 100.002 13.745 99.534 11.5956 98.622C9.4461 97.7101 7.49308 96.3723 5.84827 94.6854C4.20347 92.9984 2.89916 90.9953 2.01001 88.7907C1.12086 86.5861 0.664319 84.2234 0.666512 81.8376V18.1624C0.664319 15.7766 1.12086 13.4139 2.01001 11.2093C2.89916 9.00471 4.20347 7.00162 5.84827 5.31463C7.49308 3.62765 9.4461 2.28991 11.5956 1.37796C13.745 0.466009 16.0487 -0.00224053 18.3748 8.06015e-06Z" fill="#F7DF1E"/>
<path d="M64.511 67.746C66.5252 71.0349 69.1459 73.4524 73.7808 73.4524C77.6744 73.4524 80.1617 71.5063 80.1617 68.8175C80.1617 65.5952 77.6062 64.454 73.3205 62.5794L70.9713 61.5714C64.1903 58.6825 59.6856 55.0635 59.6856 47.4127C59.6856 40.3651 65.0554 35 73.4475 35C79.4221 35 83.7173 37.0794 86.8125 42.5238L79.4951 47.2222C77.884 44.3333 76.1459 43.1952 73.4475 43.1952C70.6951 43.1952 68.9506 44.9413 68.9506 47.2222C68.9506 50.0413 70.6967 51.1825 74.7284 52.9286L77.0776 53.9349C85.0617 57.3587 89.5697 60.8492 89.5697 68.6968C89.5697 77.1571 82.9236 81.7921 73.9983 81.7921C65.2713 81.7921 59.6332 77.6333 56.8744 72.1825L64.511 67.746ZM31.3157 68.5603C32.7919 71.1794 34.1348 73.3937 37.3633 73.3937C40.4506 73.3937 42.3983 72.1857 42.3983 67.4889V35.5365H51.7951V67.6159C51.7951 77.346 46.0903 81.7746 37.7633 81.7746C30.2395 81.7746 25.8824 77.881 23.6665 73.1913L31.3157 68.5603Z" fill="black"/>
</g>
<defs>
<clipPath id="clip0_630_115">
<rect x="0.666504" width="100" height="100" rx="50" fill="white"/>
</clipPath>
</defs>
</svg>
