<svg width="100" height="100" viewBox="0 0 100 100" fill="none" xmlns="http://www.w3.org/2000/svg">
<g clip-path="url(#clip0_832_383)">
<path d="M17.7083 8.06015e-06H82.2917C84.6178 -0.00224053 86.9215 0.466009 89.0709 1.37796C91.2204 2.28991 93.1734 3.62765 94.8182 5.31463C96.463 7.00162 97.7673 9.00471 98.6565 11.2093C99.5457 13.4139 100.002 15.7766 100 18.1624V81.8376C100.002 84.2234 99.5457 86.5861 98.6565 88.7907C97.7673 90.9953 96.463 92.9984 94.8182 94.6854C93.1734 96.3723 91.2204 97.7101 89.0709 98.622C86.9215 99.534 84.6178 100.002 82.2917 100H17.7083C15.3822 100.002 13.0785 99.534 10.9291 98.622C8.7796 97.7101 6.82658 96.3723 5.18177 94.6854C3.53696 92.9984 2.23266 90.9953 1.34351 88.7907C0.454359 86.5861 -0.00218452 84.2234 7.85865e-06 81.8376V18.1624C-0.00218452 15.7766 0.454359 13.4139 1.34351 11.2093C2.23266 9.00471 3.53696 7.00162 5.18177 5.31463C6.82658 3.62765 8.7796 2.28991 10.9291 1.37796C13.0785 0.466009 15.3822 -0.00224053 17.7083 8.06015e-06Z" fill="white"/>
<path d="M25 80C25 80 20 80 20 75C20 70 25 55 50 55C75 55 80 70 80 75C80 80 75 80 75 80H25ZM50 50C53.9782 50 57.7936 48.4196 60.6066 45.6066C63.4196 42.7936 65 38.9782 65 35C65 31.0218 63.4196 27.2064 60.6066 24.3934C57.7936 21.5804 53.9782 20 50 20C46.0218 20 42.2064 21.5804 39.3934 24.3934C36.5804 27.2064 35 31.0218 35 35C35 38.9782 36.5804 42.7936 39.3934 45.6066C42.2064 48.4196 46.0218 50 50 50Z" fill="#0F172A"/>
</g>
<defs>
<clipPath id="clip0_832_383">
<rect width="100" height="100" rx="50" fill="white"/>
</clipPath>
</defs>
</svg>
