<svg width="100" height="100" viewBox="0 0 100 100" fill="none" xmlns="http://www.w3.org/2000/svg">
<g clip-path="url(#clip0_630_135)">
<path d="M17.7083 8.06015e-06H82.2917C84.6178 -0.00224053 86.9215 0.466009 89.0709 1.37796C91.2204 2.28991 93.1734 3.62765 94.8182 5.31463C96.463 7.00162 97.7673 9.00471 98.6565 11.2093C99.5457 13.4139 100.002 15.7766 100 18.1624V81.8376C100.002 84.2234 99.5457 86.5861 98.6565 88.7907C97.7673 90.9953 96.463 92.9984 94.8182 94.6854C93.1734 96.3723 91.2204 97.7101 89.0709 98.622C86.9215 99.534 84.6178 100.002 82.2917 100H17.7083C15.3822 100.002 13.0785 99.534 10.9291 98.622C8.7796 97.7101 6.82658 96.3723 5.18177 94.6854C3.53696 92.9984 2.23266 90.9953 1.34351 88.7907C0.454359 86.5861 -0.00218452 84.2234 7.85865e-06 81.8376V18.1624C-0.00218452 15.7766 0.454359 13.4139 1.34351 11.2093C2.23266 9.00471 3.53696 7.00162 5.18177 5.31463C6.82658 3.62765 8.7796 2.28991 10.9291 1.37796C13.0785 0.466009 15.3822 -0.00224053 17.7083 8.06015e-06Z" fill="#777BB3"/>
<path d="M23.5899 55.8424C26.0214 55.8424 27.8366 55.394 28.9851 54.5101C30.1213 53.6353 30.9061 52.1195 31.3174 50.0053C31.7009 48.0291 31.5548 46.6492 30.8833 45.9045C30.1967 45.144 28.7122 44.7582 26.4712 44.7582H22.5855L20.4313 55.8424H23.5899ZM10.8808 69.4961C10.7004 69.4961 10.5291 69.4155 10.4145 69.276C10.2996 69.1368 10.253 68.9534 10.2875 68.7762L15.9964 39.403C16.0517 39.119 16.3005 38.9139 16.5899 38.9139H28.8942C32.7611 38.9139 35.6394 39.9638 37.4485 42.035C39.2674 44.117 39.829 47.0273 39.1178 50.6848C38.8284 52.175 38.3306 53.5589 37.6384 54.7979C36.9453 56.0383 36.0294 57.186 34.9155 58.2098C33.5822 59.4577 32.0731 60.3625 30.4343 60.895C28.8214 61.4204 26.7501 61.6868 24.2779 61.6868H19.2957L17.8729 69.0068C17.8177 69.2909 17.569 69.4961 17.2796 69.4961H10.8808Z" fill="black"/>
<path d="M23.084 45.3627H26.4713C29.1761 45.3627 30.1156 45.9562 30.4348 46.3099C30.9644 46.8972 31.0644 48.1354 30.724 49.8905C30.3415 51.8554 29.6325 53.2486 28.6164 54.031C27.5761 54.8318 25.8849 55.2377 23.59 55.2377H21.1648L23.084 45.3627ZM28.8943 38.3092H16.5899C16.0111 38.3092 15.5135 38.7195 15.4031 39.2876L9.69412 68.6609C9.62519 69.0153 9.7183 69.3819 9.94784 69.6606C10.1776 69.9394 10.5198 70.1006 10.8809 70.1006H17.2795C17.8585 70.1006 18.3561 69.6903 18.4665 69.1222L19.7942 62.2913H24.2781C26.8137 62.2913 28.9483 62.0148 30.622 61.4696C32.3433 60.9104 33.9269 59.9622 35.3286 58.6514C36.4878 57.5849 37.4426 56.3879 38.1661 55.093C38.8898 53.7978 39.4098 52.3534 39.7115 50.8C40.4601 46.95 39.8519 43.867 37.9039 41.6372C35.9749 39.4289 32.9435 38.3092 28.8943 38.3092ZM19.6979 56.4469H23.59C26.1698 56.4469 28.0914 55.961 29.354 54.989C30.6168 54.0168 31.4685 52.3943 31.911 50.1207C32.3344 47.9377 32.1416 46.3972 31.3324 45.4998C30.5223 44.6024 28.9022 44.1536 26.4713 44.1536H22.0872L19.6979 56.4469ZM28.8943 39.5184C32.5958 39.5184 35.2961 40.4897 36.9934 42.4327C38.6905 44.3756 39.2016 47.0876 38.5244 50.5695C38.2457 52.0038 37.7743 53.3151 37.1107 54.5031C36.4463 55.692 35.5787 56.779 34.5065 57.7647C33.2288 58.9604 31.8095 59.8125 30.2476 60.3199C28.6857 60.8288 26.6964 61.0821 24.2781 61.0821H18.7972L17.2795 68.8914H10.8809L16.5899 39.5184H28.8943Z" fill="white"/>
<path d="M53.7892 61.6865C53.6087 61.6865 53.4376 61.6059 53.3229 61.4665C53.2078 61.3272 53.1613 61.144 53.1957 60.9667L55.7211 47.9702C55.9613 46.7342 55.9021 45.847 55.5544 45.4722C55.3416 45.2431 54.7024 44.8587 52.8122 44.8587H48.2371L45.062 61.1972C45.0067 61.4814 44.7579 61.6865 44.4685 61.6865H38.1203C37.9397 61.6865 37.7686 61.6059 37.6537 61.4665C37.5388 61.3272 37.4923 61.1438 37.5267 60.9667L43.2357 31.5934C43.2909 31.3094 43.5398 31.1043 43.8292 31.1043H50.1774C50.358 31.1043 50.5291 31.1849 50.644 31.3242C50.7588 31.4636 50.8054 31.6468 50.7709 31.8242L49.3933 38.9136H54.315C58.0645 38.9136 60.607 39.5746 62.0879 40.9345C63.5973 42.3219 64.0683 44.5401 63.4879 47.5284L60.8317 61.1972C60.7765 61.4814 60.5278 61.6865 60.2382 61.6865H53.7892Z" fill="black"/>
<path d="M50.1771 30.4996H43.8289C43.2499 30.4996 42.7523 30.9099 42.6418 31.478L36.9329 60.8513C36.864 61.2058 36.9571 61.5724 37.1868 61.8511C37.4166 62.1298 37.7588 62.291 38.1199 62.291H44.4681C45.0469 62.291 45.5447 61.8807 45.6551 61.3126L48.7351 45.4632H52.8119C54.6988 45.4632 55.0948 45.8663 55.1107 45.8836C55.2252 46.0068 55.3757 46.5771 55.1272 47.8548L52.6019 60.8513C52.5329 61.2058 52.6261 61.5724 52.8558 61.8511C53.0855 62.1298 53.4277 62.291 53.7889 62.291H60.2379C60.8167 62.291 61.3144 61.8807 61.4249 61.3126L64.0808 47.6438C64.7042 44.4352 64.1709 42.0283 62.4966 40.4895C60.8989 39.0221 58.2226 38.3089 54.3147 38.3089H50.1261L51.3641 31.9395C51.4328 31.585 51.3399 31.2183 51.1101 30.9397C50.8804 30.661 50.5382 30.4996 50.1771 30.4996ZM50.1771 31.7088L48.6593 39.5181H54.3147C57.8731 39.5181 60.3275 40.1392 61.6784 41.3798C63.0293 42.6212 63.4339 44.6327 62.894 47.4132L60.2379 61.0818H53.7889L56.3143 48.0855C56.6016 46.6071 56.496 45.5987 55.9971 45.061C55.4979 44.5233 54.436 44.254 52.8119 44.254H47.7381L44.4681 61.0818H38.1199L43.8289 31.7088H50.1771Z" fill="white"/>
<path d="M73.5323 55.8424C75.9637 55.8424 77.7789 55.394 78.9274 54.5101C80.0637 53.6355 80.8484 52.1197 81.2599 50.0053C81.6435 48.0291 81.4973 46.6492 80.8256 45.9045C80.139 45.144 78.6546 44.7582 76.4135 44.7582H72.5278L70.3737 55.8424H73.5323ZM60.8234 69.4961C60.643 69.4961 60.4717 69.4155 60.357 69.276C60.2421 69.1368 60.1954 68.9534 60.2298 68.7762L65.9388 39.403C65.9942 39.119 66.2429 38.9139 66.5325 38.9139H78.8365C82.7037 38.9139 85.5818 39.9638 87.3911 42.035C89.2099 44.1168 89.7714 47.0271 89.0604 50.6848C88.7706 52.175 88.273 53.5589 87.5807 54.7979C86.8877 56.0383 85.9717 57.186 84.8579 58.2098C83.5245 59.4577 82.0155 60.3625 80.3766 60.895C78.7638 61.4204 76.6925 61.6868 74.2203 61.6868H69.2379L67.8157 69.0068C67.7602 69.2909 67.5115 69.4961 67.2219 69.4961H60.8234Z" fill="black"/>
<path d="M73.0262 45.3627H76.4135C79.1182 45.3627 80.0578 45.9562 80.377 46.3099C80.9068 46.8972 81.0068 48.1354 80.6662 49.8903C80.2837 51.8554 79.5745 53.2486 78.5586 54.031C77.5183 54.8318 75.827 55.2377 73.5322 55.2377H71.1072L73.0262 45.3627ZM78.8365 38.3092H66.5323C65.9535 38.3092 65.4559 38.7195 65.3455 39.2876L59.6365 68.6609C59.5676 69.0153 59.6607 69.3819 59.8902 69.6606C60.12 69.9394 60.4622 70.1006 60.8233 70.1006H67.2219C67.8007 70.1006 68.2985 69.6903 68.4089 69.1222L69.7364 62.2913H74.2202C76.7559 62.2913 78.8905 62.0148 80.5642 61.4696C82.2855 60.9104 83.8695 59.962 85.2712 58.651C86.4304 57.5847 87.3848 56.3879 88.1083 55.093C88.832 53.7978 89.352 52.3534 89.6536 50.8C90.4023 46.9498 89.7941 43.8668 87.8461 41.637C85.9171 39.4289 82.8859 38.3092 78.8365 38.3092ZM69.6403 56.4469H73.5322C76.112 56.4469 78.0336 55.961 79.2962 54.989C80.5592 54.0168 81.4106 52.3943 81.8532 50.1207C82.2768 47.9377 82.084 46.3972 81.2746 45.4998C80.4645 44.6024 78.8444 44.1536 76.4135 44.1536H72.0294L69.6403 56.4469ZM78.8365 39.5184C82.538 39.5184 85.2383 40.4897 86.9356 42.4327C88.6329 44.3756 89.1438 47.0876 88.4666 50.5695C88.1879 52.0038 87.7165 53.3151 87.0529 54.5031C86.3884 55.692 85.5209 56.779 84.4487 57.7647C83.171 58.9604 81.7516 59.8125 80.1898 60.3199C78.6279 60.8288 76.6386 61.0821 74.2202 61.0821H68.7394L67.2219 68.8914H60.8233L66.5323 39.5184H78.8365Z" fill="white"/>
</g>
<defs>
<clipPath id="clip0_630_135">
<rect width="100" height="100" rx="50" fill="white"/>
</clipPath>
</defs>
</svg>
