<svg width="101" height="100" viewBox="0 0 101 100" fill="none" xmlns="http://www.w3.org/2000/svg">
<g clip-path="url(#clip0_630_150)">
<path d="M18.3748 8.06015e-06H82.9582C85.2843 -0.00224053 87.588 0.466009 89.7374 1.37796C91.8869 2.28991 93.8399 3.62765 95.4847 5.31463C97.1295 7.00162 98.4339 9.00471 99.323 11.2093C100.212 13.4139 100.669 15.7766 100.667 18.1624V81.8376C100.669 84.2233 100.212 86.5861 99.323 88.7907C98.4339 90.9953 97.1295 92.9984 95.4847 94.6854C93.8399 96.3723 91.8869 97.7101 89.7374 98.622C87.588 99.534 85.2843 100.002 82.9582 100H18.3748C16.0487 100.002 13.745 99.534 11.5956 98.622C9.4461 97.7101 7.49308 96.3723 5.84827 94.6854C4.20346 92.9984 2.89916 90.9953 2.01001 88.7907C1.12086 86.5861 0.664319 84.2233 0.666512 81.8376V18.1624C0.664319 15.7766 1.12086 13.4139 2.01001 11.2093C2.89916 9.00471 4.20346 7.00162 5.84827 5.31463C7.49308 3.62765 9.4461 2.28991 11.5956 1.37796C13.745 0.466009 16.0487 -0.00224053 18.3748 8.06015e-06Z" fill="#FFF4D3"/>
<path d="M50.5255 16.5C33.1921 16.5 34.2745 24.0168 34.2745 24.0168L34.2939 31.8041H50.8347V34.1422H27.7239C27.7239 34.1422 16.6323 32.8843 16.6323 50.3738C16.6323 67.8633 26.3133 67.2431 26.3133 67.2431H32.091V59.1273C32.091 59.1273 31.7796 49.4463 41.6174 49.4463C51.4553 49.4463 58.023 49.4463 58.023 49.4463C58.023 49.4463 67.2402 49.5953 67.2402 40.5383C67.2402 31.4812 67.2402 25.5627 67.2402 25.5627C67.2402 25.5627 68.6396 16.5 50.5255 16.5ZM41.4049 21.7366C43.0506 21.7366 44.3807 23.0667 44.3807 24.7124C44.3807 26.3581 43.0506 27.6882 41.4049 27.6882C39.7592 27.6882 38.4291 26.3581 38.4291 24.7124C38.4291 23.0667 39.7592 21.7366 41.4049 21.7366Z" fill="url(#paint0_linear_630_150)"/>
<path d="M51.0176 84.4231C68.351 84.4231 67.2685 76.9063 67.2685 76.9063L67.2492 69.119H50.7084V66.7809H73.8192C73.8192 66.7809 84.9108 68.0388 84.9108 50.5493C84.9108 33.0598 75.2298 33.68 75.2298 33.68H69.4521V41.7958C69.4521 41.7958 69.7635 51.4768 59.9257 51.4768C50.0878 51.4768 43.5201 51.4768 43.5201 51.4768C43.5201 51.4768 34.3029 51.3278 34.3029 60.3848C34.3029 69.4419 34.3029 75.3605 34.3029 75.3605C34.3029 75.3605 32.9035 84.4231 51.0176 84.4231ZM60.1382 79.1865C58.4925 79.1865 57.1624 77.8564 57.1624 76.2107C57.1624 74.565 58.4925 73.2349 60.1382 73.2349C61.7839 73.2349 63.114 74.565 63.114 76.2107C63.114 77.8564 61.7839 79.1865 60.1382 79.1865Z" fill="url(#paint1_linear_630_150)"/>
</g>
<defs>
<linearGradient id="paint0_linear_630_150" x1="23.194" y1="22.4371" x2="56.9558" y2="56.3118" gradientUnits="userSpaceOnUse">
<stop stop-color="#387EB8"/>
<stop offset="1" stop-color="#366994"/>
</linearGradient>
<linearGradient id="paint1_linear_630_150" x1="43.9627" y1="43.9867" x2="80.2229" y2="78.7259" gradientUnits="userSpaceOnUse">
<stop stop-color="#FFE052"/>
<stop offset="1" stop-color="#FFC331"/>
</linearGradient>
<clipPath id="clip0_630_150">
<rect x="0.666504" width="100" height="100" rx="50" fill="white"/>
</clipPath>
</defs>
</svg>
