<svg width="101" height="100" viewBox="0 0 101 100" fill="none" xmlns="http://www.w3.org/2000/svg">
<g clip-path="url(#clip0_630_155)">
<path d="M18.0418 8.06015e-06H82.6252C84.9513 -0.00224053 87.255 0.466009 89.4044 1.37796C91.5539 2.28991 93.5069 3.62765 95.1517 5.31463C96.7965 7.00162 98.1008 9.00471 98.99 11.2093C99.8791 13.4139 100.336 15.7766 100.333 18.1624V81.8376C100.336 84.2234 99.8791 86.5861 98.99 88.7907C98.1008 90.9953 96.7965 92.9984 95.1517 94.6854C93.5069 96.3723 91.5539 97.7101 89.4044 98.622C87.255 99.534 84.9513 100.002 82.6252 100H18.0418C15.7157 100.002 13.412 99.534 11.2626 98.622C9.11309 97.7101 7.16007 96.3723 5.51526 94.6854C3.87046 92.9984 2.56616 90.9953 1.67701 88.7907C0.787855 86.5861 0.331312 84.2234 0.333504 81.8376V18.1624C0.331312 15.7766 0.787855 13.4139 1.67701 11.2093C2.56616 9.00471 3.87046 7.00162 5.51526 5.31463C7.16007 3.62765 9.11309 2.28991 11.2626 1.37796C13.412 0.466009 15.7157 -0.00224053 18.0418 8.06015e-06Z" fill="#FFDFDA"/>
<path fill-rule="evenodd" clip-rule="evenodd" d="M66.7666 59.4265L32.5483 79.7336L76.8545 76.7288L80.2669 32.0781L66.7666 59.4265Z" fill="url(#paint0_linear_630_155)"/>
<path fill-rule="evenodd" clip-rule="evenodd" d="M76.9271 76.6982L73.1189 50.4292L62.7461 64.1185L76.9271 76.6982Z" fill="url(#paint1_linear_630_155)"/>
<path fill-rule="evenodd" clip-rule="evenodd" d="M76.9787 76.6981L49.0799 74.5093L32.6968 79.6763L76.9787 76.6981Z" fill="url(#paint2_linear_630_155)"/>
<path fill-rule="evenodd" clip-rule="evenodd" d="M32.7357 79.6818L39.7051 56.8623L24.3687 60.1398L32.7357 79.6818Z" fill="url(#paint3_linear_630_155)"/>
<path fill-rule="evenodd" clip-rule="evenodd" d="M62.7438 64.1939L56.3309 39.0889L37.9785 56.2821L62.7438 64.1939Z" fill="url(#paint4_linear_630_155)"/>
<path fill-rule="evenodd" clip-rule="evenodd" d="M78.8122 39.4422L61.4641 25.2812L56.6333 40.8903L78.8122 39.4422Z" fill="url(#paint5_linear_630_155)"/>
<path fill-rule="evenodd" clip-rule="evenodd" d="M70.6988 20.2333L60.4957 25.8686L54.0586 20.1577L70.6988 20.2333Z" fill="url(#paint6_linear_630_155)"/>
<path fill-rule="evenodd" clip-rule="evenodd" d="M20.3335 67.7945L24.6078 60.0036L21.1502 50.7222L20.3335 67.7945Z" fill="url(#paint7_linear_630_155)"/>
<path fill-rule="evenodd" clip-rule="evenodd" d="M20.9204 50.429L24.3991 60.2909L39.5148 56.9015L56.7721 40.8722L61.6423 25.4116L53.9737 20L40.9362 24.8765C36.8286 28.6949 28.8579 36.25 28.5705 36.3921C28.2862 36.5372 23.3071 45.9425 20.9204 50.429Z" fill="#FFDFDA"/>
<path fill-rule="evenodd" clip-rule="evenodd" d="M33.1351 32.713C42.0375 23.8911 53.5142 18.679 57.9185 23.1202C62.3201 27.5614 57.6523 38.3544 48.7499 47.1732C39.8474 55.992 28.513 61.4913 24.1117 57.0501C19.7073 52.612 24.2327 41.5318 33.1351 32.713Z" fill="url(#paint8_linear_630_155)"/>
<path fill-rule="evenodd" clip-rule="evenodd" d="M32.7358 79.6728L39.6509 56.7808L62.6163 64.1545C54.3128 71.9363 45.0776 78.5149 32.7358 79.6728Z" fill="url(#paint9_linear_630_155)"/>
<path fill-rule="evenodd" clip-rule="evenodd" d="M56.8018 40.827L62.6974 64.1665C69.6336 56.8774 75.8589 49.0412 78.9078 39.3486L56.8018 40.827Z" fill="url(#paint10_linear_630_155)"/>
<path fill-rule="evenodd" clip-rule="evenodd" d="M78.8485 39.4665C81.2079 32.3497 81.7524 22.1402 70.6264 20.2446L61.4971 25.2844L78.8485 39.4665Z" fill="url(#paint11_linear_630_155)"/>
<path fill-rule="evenodd" clip-rule="evenodd" d="M20.3335 67.692C20.6602 79.4376 29.1391 79.6126 32.7509 79.7157L24.4081 60.2427L20.3335 67.692Z" fill="#9E1209"/>
<path fill-rule="evenodd" clip-rule="evenodd" d="M56.8354 40.8636C62.1654 44.1377 72.9073 50.7133 73.1251 50.8342C73.4636 51.0247 77.7563 43.5996 78.7303 39.4033L56.8354 40.8636Z" fill="url(#paint12_radial_630_155)"/>
<path fill-rule="evenodd" clip-rule="evenodd" d="M39.6416 56.7808L48.8858 74.6058C54.3519 71.6431 58.6322 68.0333 62.5526 64.1666L39.6416 56.7808Z" fill="url(#paint13_radial_630_155)"/>
<path fill-rule="evenodd" clip-rule="evenodd" d="M24.3718 60.2671L23.062 75.855C25.5334 79.2289 28.9334 79.5222 32.4999 79.2591C29.9196 72.8408 24.7651 60.0071 24.3718 60.2671Z" fill="url(#paint14_linear_630_155)"/>
<path fill-rule="evenodd" clip-rule="evenodd" d="M61.4424 25.3241L79.8069 27.8999C78.8268 23.749 75.8169 21.0704 70.6866 20.2329L61.4424 25.3241Z" fill="url(#paint15_linear_630_155)"/>
</g>
<defs>
<linearGradient id="paint0_linear_630_155" x1="72.99" y1="85.166" x2="60.3573" y2="62.8497" gradientUnits="userSpaceOnUse">
<stop stop-color="#FB7655"/>
<stop offset="0.41" stop-color="#E42B1E"/>
<stop offset="0.99" stop-color="#990000"/>
<stop offset="1" stop-color="#990000"/>
</linearGradient>
<linearGradient id="paint1_linear_630_155" x1="79.2883" y1="66.4245" x2="62.9994" y2="55.4875" gradientUnits="userSpaceOnUse">
<stop stop-color="#871101"/>
<stop offset="0.99" stop-color="#911209"/>
<stop offset="1" stop-color="#911209"/>
</linearGradient>
<linearGradient id="paint2_linear_630_155" x1="66.2511" y1="85.842" x2="49.9627" y2="74.9053" gradientUnits="userSpaceOnUse">
<stop stop-color="#871101"/>
<stop offset="0.99" stop-color="#911209"/>
<stop offset="1" stop-color="#911209"/>
</linearGradient>
<linearGradient id="paint3_linear_630_155" x1="32.0388" y1="58.5132" x2="34.5621" y2="74.921" gradientUnits="userSpaceOnUse">
<stop stop-color="white"/>
<stop offset="0.23" stop-color="#E57252"/>
<stop offset="0.46" stop-color="#DE3B20"/>
<stop offset="0.99" stop-color="#A60003"/>
<stop offset="1" stop-color="#A60003"/>
</linearGradient>
<linearGradient id="paint4_linear_630_155" x1="49.4137" y1="43.193" x2="50.3433" y2="59.9379" gradientUnits="userSpaceOnUse">
<stop stop-color="white"/>
<stop offset="0.23" stop-color="#E4714E"/>
<stop offset="0.56" stop-color="#BE1A0D"/>
<stop offset="0.99" stop-color="#A80D00"/>
<stop offset="1" stop-color="#A80D00"/>
</linearGradient>
<linearGradient id="paint5_linear_630_155" x1="64.8318" y1="27.7153" x2="67.6152" y2="39.7168" gradientUnits="userSpaceOnUse">
<stop stop-color="white"/>
<stop offset="0.18" stop-color="#E46342"/>
<stop offset="0.4" stop-color="#C82410"/>
<stop offset="0.99" stop-color="#A80D00"/>
<stop offset="1" stop-color="#A80D00"/>
</linearGradient>
<linearGradient id="paint6_linear_630_155" x1="56.3231" y1="23.4898" x2="68.3272" y2="17.4844" gradientUnits="userSpaceOnUse">
<stop stop-color="white"/>
<stop offset="0.54" stop-color="#C81F11"/>
<stop offset="0.99" stop-color="#BF0905"/>
<stop offset="1" stop-color="#BF0905"/>
</linearGradient>
<linearGradient id="paint7_linear_630_155" x1="21.5142" y1="54.3303" x2="22.5013" y2="64.2189" gradientUnits="userSpaceOnUse">
<stop stop-color="white"/>
<stop offset="0.31" stop-color="#DE4024"/>
<stop offset="0.99" stop-color="#BF190B"/>
<stop offset="1" stop-color="#BF190B"/>
</linearGradient>
<linearGradient id="paint8_linear_630_155" x1="14.7205" y1="66.8922" x2="61.1481" y2="19.1248" gradientUnits="userSpaceOnUse">
<stop stop-color="#BD0012"/>
<stop offset="0.07" stop-color="white"/>
<stop offset="0.17" stop-color="white"/>
<stop offset="0.27" stop-color="#C82F1C"/>
<stop offset="0.33" stop-color="#820C01"/>
<stop offset="0.46" stop-color="#A31601"/>
<stop offset="0.72" stop-color="#B31301"/>
<stop offset="0.99" stop-color="#E82609"/>
<stop offset="1" stop-color="#E82609"/>
</linearGradient>
<linearGradient id="paint9_linear_630_155" x1="50.3031" y1="71.7075" x2="36.3115" y2="68.2523" gradientUnits="userSpaceOnUse">
<stop stop-color="#8C0C01"/>
<stop offset="0.54" stop-color="#990C00"/>
<stop offset="0.99" stop-color="#A80D0E"/>
<stop offset="1" stop-color="#A80D0E"/>
</linearGradient>
<linearGradient id="paint10_linear_630_155" x1="74.3362" y1="54.9228" x2="61.9119" y2="43.781" gradientUnits="userSpaceOnUse">
<stop stop-color="#7E110B"/>
<stop offset="0.99" stop-color="#9E0C00"/>
<stop offset="1" stop-color="#9E0C00"/>
</linearGradient>
<linearGradient id="paint11_linear_630_155" x1="78.904" y1="34.4923" x2="72.7158" y2="27.873" gradientUnits="userSpaceOnUse">
<stop stop-color="#79130D"/>
<stop offset="0.99" stop-color="#9E120B"/>
<stop offset="1" stop-color="#9E120B"/>
</linearGradient>
<radialGradient id="paint12_radial_630_155" cx="0" cy="0" r="1" gradientUnits="userSpaceOnUse" gradientTransform="translate(63.842 44.0011) scale(15.2329 15.2244)">
<stop stop-color="#A80D00"/>
<stop offset="0.99" stop-color="#7E0E08"/>
<stop offset="1" stop-color="#7E0E08"/>
</radialGradient>
<radialGradient id="paint13_radial_630_155" cx="0" cy="0" r="1" gradientUnits="userSpaceOnUse" gradientTransform="translate(42.7459 64.0641) scale(20.2501 20.2388)">
<stop stop-color="#A30C00"/>
<stop offset="0.99" stop-color="#800E08"/>
<stop offset="1" stop-color="#800E08"/>
</radialGradient>
<linearGradient id="paint14_linear_630_155" x1="28.401" y1="79.66" x2="23.3603" y2="62.5487" gradientUnits="userSpaceOnUse">
<stop stop-color="#8B2114"/>
<stop offset="0.43" stop-color="#9E100A"/>
<stop offset="0.99" stop-color="#B3100C"/>
<stop offset="1" stop-color="#B3100C"/>
</linearGradient>
<linearGradient id="paint15_linear_630_155" x1="67.1115" y1="22.9623" x2="78.4221" y2="27.9577" gradientUnits="userSpaceOnUse">
<stop stop-color="#B31000"/>
<stop offset="0.44" stop-color="#910F08"/>
<stop offset="0.99" stop-color="#791C12"/>
<stop offset="1" stop-color="#791C12"/>
</linearGradient>
<clipPath id="clip0_630_155">
<rect x="0.333496" width="100" height="100" rx="50" fill="white"/>
</clipPath>
</defs>
</svg>
