<svg width="100" height="100" viewBox="0 0 100 100" fill="none" xmlns="http://www.w3.org/2000/svg">
<g clip-path="url(#clip0_630_176)">
<path d="M17.7083 8.06015e-06H82.2917C84.6178 -0.00224053 86.9215 0.466009 89.0709 1.37796C91.2204 2.28991 93.1734 3.62765 94.8182 5.31463C96.4631 7.00162 97.7674 9.00471 98.6565 11.2093C99.5457 13.4139 100.002 15.7766 100 18.1624V81.8376C100.002 84.2234 99.5457 86.5861 98.6565 88.7907C97.7674 90.9953 96.4631 92.9984 94.8182 94.6854C93.1734 96.3723 91.2204 97.7101 89.0709 98.622C86.9215 99.534 84.6178 100.002 82.2917 100H17.7083C15.3822 100.002 13.0785 99.534 10.9291 98.622C8.7796 97.7101 6.82658 96.3723 5.18177 94.6854C3.53696 92.9984 2.23266 90.9953 1.34351 88.7907C0.454359 86.5861 -0.00218452 84.2234 7.85865e-06 81.8376V18.1624C-0.00218452 15.7766 0.454359 13.4139 1.34351 11.2093C2.23266 9.00471 3.53696 7.00162 5.18177 5.31463C6.82658 3.62765 8.7796 2.28991 10.9291 1.37796C13.0785 0.466009 15.3822 -0.00224053 17.7083 8.06015e-06Z" fill="#EAEAEA"/>
<path d="M83.5241 49.1809L80.6722 47.4171C80.6722 47.1402 80.6236 46.8632 80.5896 46.5863L83.0189 44.2977C83.1438 44.185 83.2374 44.0418 83.2904 43.8821C83.3434 43.7224 83.354 43.5516 83.3212 43.3865C83.2884 43.2215 83.2133 43.0678 83.1032 42.9405C82.9931 42.8132 82.8519 42.7166 82.6933 42.6603L79.5596 41.4893C79.4818 41.2172 79.3992 40.95 79.3166 40.6779L81.2601 37.9618C81.3629 37.8241 81.4275 37.6617 81.4471 37.491C81.4667 37.3203 81.4408 37.1474 81.3718 36.99C81.3108 36.8383 81.2124 36.7044 81.0859 36.6007C80.9593 36.4971 80.8087 36.4271 80.6479 36.3972L77.344 35.8579C77.2177 35.6052 77.0817 35.372 76.9456 35.1145L78.3352 32.0631C78.4079 31.9111 78.4398 31.7427 78.4278 31.5746C78.4158 31.4065 78.3602 31.2444 78.2666 31.1042C78.173 30.964 78.0446 30.8506 77.8939 30.7751C77.7432 30.6996 77.5755 30.6646 77.4072 30.6735L74.0548 30.7901C73.8799 30.5763 73.705 30.3577 73.5252 30.1439L74.2929 26.903C74.337 26.7394 74.3375 26.567 74.2945 26.4031C74.2514 26.2392 74.1662 26.0893 74.0474 25.9685C73.9285 25.8477 73.7801 25.76 73.6169 25.7143C73.4537 25.6686 73.2814 25.6663 73.1171 25.7077L69.8521 26.4803C69.6384 26.3102 69.4343 26.1353 69.2059 25.9604L69.3225 22.6078C69.3297 22.4408 69.2936 22.2749 69.2178 22.1259C69.1421 21.977 69.0292 21.8501 68.8901 21.7575C68.7494 21.6601 68.5854 21.6016 68.4147 21.5879C68.2441 21.5743 68.0729 21.6059 67.9184 21.6797L64.8672 23.0694L64.1239 22.6709L63.604 19.3669C63.5775 19.2012 63.5085 19.0452 63.4038 18.914C63.299 18.7829 63.1621 18.6811 63.0064 18.6186C62.849 18.5497 62.6762 18.5237 62.5055 18.5433C62.3348 18.563 62.1723 18.6275 62.0347 18.7304L59.3187 20.6739L58.5122 20.431L57.3705 17.3019C57.3158 17.1422 57.2205 16.9995 57.094 16.8879C56.9674 16.7762 56.814 16.6994 56.6487 16.6651C56.4835 16.6308 56.3122 16.6401 56.1516 16.6921C55.9911 16.7441 55.8468 16.8371 55.7331 16.9618L53.4447 19.4155L52.6139 19.3475L50.8454 16.4759C50.7594 16.3309 50.6371 16.2107 50.4905 16.1273C50.344 16.0439 50.1783 16 50.0097 16C49.8411 16 49.6754 16.0439 49.5289 16.1273C49.3824 16.2107 49.2601 16.3309 49.174 16.4759L47.4104 19.328L46.599 19.4301L44.2912 16.9618C44.1785 16.8368 44.0353 16.7432 43.8756 16.6902C43.7158 16.6372 43.5451 16.6266 43.38 16.6594C43.215 16.6922 43.0613 16.7673 42.934 16.8774C42.8067 16.9875 42.7102 17.1287 42.6538 17.2873L41.4781 20.4213L40.6715 20.6642L37.9556 18.7207C37.8208 18.6195 37.662 18.555 37.4949 18.5337C37.3277 18.5124 37.1578 18.535 37.002 18.5992C36.8461 18.6634 36.7096 18.767 36.606 18.8999C36.5023 19.0328 36.4349 19.1904 36.4106 19.3572L35.8713 22.6612C35.6283 22.7924 35.3757 22.9333 35.1328 23.0694L32.0816 21.6797C31.9271 21.6059 31.7559 21.5743 31.5853 21.5879C31.4146 21.6016 31.2506 21.6601 31.1099 21.7575C30.9708 21.8501 30.8579 21.977 30.7822 22.1259C30.7064 22.2749 30.6703 22.4408 30.6775 22.6078L30.7941 25.9604C30.5803 26.1353 30.3617 26.3102 30.1479 26.49L26.8975 25.7077C26.7322 25.6631 26.558 25.6629 26.3927 25.7073C26.2273 25.7516 26.0765 25.8388 25.9557 25.9602C25.8349 26.0815 25.7483 26.2326 25.7046 26.3981C25.661 26.5637 25.6618 26.7379 25.7071 26.903L26.4894 30.173C26.3096 30.3868 26.1347 30.5957 25.9598 30.8192L22.6074 30.7026C22.4391 30.6937 22.2713 30.7288 22.1207 30.8043C21.97 30.8798 21.8415 30.9932 21.7479 31.1334C21.6543 31.2735 21.5988 31.4356 21.5868 31.6037C21.5748 31.7719 21.6067 31.9402 21.6794 32.0923L23.0689 35.1339C22.9329 35.3769 22.8017 35.6198 22.6705 35.8773L19.3667 36.3972C19.1999 36.4216 19.0424 36.4889 18.9095 36.5926C18.7766 36.6963 18.673 36.8328 18.6088 36.9886C18.5446 37.1445 18.522 37.3144 18.5433 37.4816C18.5646 37.6488 18.629 37.8076 18.7302 37.9423L20.6737 40.6584C20.5911 40.9257 20.5085 41.1978 20.4307 41.4699L17.3018 42.6603C17.1432 42.7166 17.002 42.8132 16.8919 42.9405C16.7819 43.0678 16.7068 43.2215 16.6739 43.3865C16.6411 43.5516 16.6517 43.7224 16.7047 43.8821C16.7577 44.0418 16.8513 44.185 16.9763 44.2977L19.4299 46.6008C19.391 46.8632 19.391 47.1402 19.3473 47.4171L16.4759 49.1809C16.3309 49.2669 16.2107 49.3892 16.1273 49.5358C16.0439 49.6823 16 49.848 16 50.0166C16 50.1852 16.0439 50.3509 16.1273 50.4975C16.2107 50.644 16.3309 50.7663 16.4759 50.8523L19.3473 52.6161C19.391 52.9174 19.391 53.1749 19.4299 53.447L16.9617 55.7355C16.8367 55.8482 16.7432 55.9914 16.6902 56.1511C16.6372 56.3109 16.6266 56.4816 16.6594 56.6467C16.6922 56.8117 16.7673 56.9655 16.8774 57.0928C16.9874 57.2201 17.1287 57.3166 17.2872 57.3729L20.4356 58.5488C20.5133 58.8209 20.5959 59.093 20.6785 59.3602L18.7351 62.0763C18.6366 62.2113 18.5745 62.3694 18.5549 62.5354C18.5354 62.7014 18.5589 62.8696 18.6233 63.0238C18.6865 63.1786 18.7886 63.3145 18.9197 63.4184C19.0507 63.5222 19.2064 63.5905 19.3716 63.6166L22.6754 64.1559C22.8017 64.4086 22.9378 64.6418 23.0738 64.8993L21.6842 67.9458C21.6115 68.0979 21.5796 68.2662 21.5916 68.4343C21.6037 68.6025 21.6592 68.7646 21.7528 68.9047C21.8464 69.0449 21.9749 69.1583 22.1255 69.2338C22.2762 69.3093 22.4439 69.3444 22.6122 69.3355L25.9646 69.2188C26.1396 69.4375 26.3145 69.6513 26.4942 69.8651L25.7071 73.1254C25.6671 73.2889 25.6703 73.46 25.7163 73.6219C25.7623 73.7839 25.8496 73.9311 25.9696 74.0491C26.0896 74.1672 26.2382 74.2521 26.4009 74.2954C26.5635 74.3387 26.7347 74.3391 26.8975 74.2963L30.1673 73.5286L30.8135 74.0583L30.6969 77.4157C30.6889 77.5837 30.7245 77.7508 30.8004 77.9008C30.8763 78.0508 30.9898 78.1785 31.1298 78.2715C31.2698 78.3646 31.4316 78.4197 31.5992 78.4315C31.7669 78.4433 31.9348 78.4114 32.0864 78.3389L35.1376 76.9493C35.3806 77.0853 35.6235 77.2165 35.881 77.3477L36.396 80.6663C36.4221 80.8315 36.4903 80.9872 36.5942 81.1183C36.698 81.2493 36.8339 81.3514 36.9887 81.4146C37.1462 81.4818 37.3184 81.5073 37.4886 81.4886C37.6588 81.4698 37.8213 81.4075 37.9605 81.3077L40.6764 79.3641L41.4878 79.6071L42.6636 82.7411C42.7199 82.8996 42.8164 83.0409 42.9437 83.151C43.071 83.261 43.2247 83.3361 43.3898 83.3689C43.5548 83.4018 43.7256 83.3912 43.8853 83.3382C44.045 83.2852 44.1882 83.1916 44.3009 83.0666L46.599 80.6129C46.8759 80.6469 47.1529 80.6712 47.4347 80.6955L49.1838 83.5282C49.2701 83.6721 49.3922 83.7912 49.5382 83.8739C49.6843 83.9565 49.8492 84 50.017 84C50.1848 84 50.3498 83.9565 50.4958 83.8739C50.6418 83.7912 50.7639 83.6721 50.8503 83.5282L52.6139 80.676L53.4447 80.6129L55.7331 83.0423C55.8458 83.1673 55.989 83.2609 56.1487 83.3139C56.3085 83.3669 56.4792 83.3775 56.6443 83.3447C56.8093 83.3118 56.963 83.2367 57.0903 83.1267C57.2176 83.0166 57.3141 82.8753 57.3705 82.7168L58.5462 79.5828L59.3576 79.3399L62.0736 81.2834C62.2116 81.3855 62.3743 81.4492 62.545 81.4679C62.7157 81.4867 62.8883 81.4599 63.0453 81.3903C63.2001 81.3271 63.336 81.2251 63.4398 81.094C63.5437 80.9629 63.6119 80.8072 63.638 80.642L64.1773 77.338L64.9207 76.9396L67.9719 78.3292C68.1233 78.4005 68.2907 78.4315 68.4576 78.4191C68.6246 78.4068 68.7855 78.3515 68.9248 78.2586C69.0642 78.1657 69.1771 78.0384 69.2527 77.889C69.3284 77.7397 69.3641 77.5733 69.3566 77.406L69.2399 74.0485L69.8861 73.5189L73.1268 74.2963C73.2895 74.3354 73.4595 74.3317 73.6204 74.2858C73.7813 74.2398 73.9276 74.1531 74.0451 74.034C74.16 73.9159 74.243 73.7706 74.2864 73.6117C74.3297 73.4528 74.332 73.2854 74.2929 73.1254L73.5252 69.8554C73.705 69.6416 73.8799 69.4326 74.0548 69.2091L77.4072 69.3257C77.5741 69.3328 77.7401 69.2968 77.889 69.221C78.038 69.1453 78.1649 69.0324 78.2575 68.8933C78.3541 68.7521 78.4117 68.5878 78.4245 68.4172C78.4373 68.2466 78.4048 68.0756 78.3303 67.9215L76.9408 64.875C77.072 64.6321 77.208 64.3891 77.3392 64.1316L80.643 63.5923C80.809 63.5674 80.9657 63.5001 81.0978 63.3967C81.23 63.2933 81.3332 63.1574 81.3973 63.0023C81.4614 62.8473 81.4842 62.6782 81.4636 62.5117C81.4429 62.3451 81.3795 62.1868 81.2795 62.052L79.3361 59.3359C79.4187 59.0687 79.5013 58.7966 79.579 58.5245L82.7128 57.3535C82.8697 57.2954 83.0089 57.1978 83.117 57.0701C83.2251 56.9424 83.2984 56.789 83.3298 56.6247C83.36 56.4639 83.3491 56.2981 83.2981 56.1427C83.2472 55.9872 83.1578 55.8472 83.0383 55.7355L80.609 53.447C80.6382 53.17 80.6625 52.8931 80.6916 52.6161L83.5241 50.8523C83.6691 50.7663 83.7893 50.644 83.8727 50.4975C83.9561 50.3509 84 50.1852 84 50.0166C84 49.848 83.9561 49.6823 83.8727 49.5358C83.7893 49.3892 83.6691 49.2669 83.5241 49.1809ZM64.4202 72.8387C64.0289 72.7556 63.671 72.5582 63.3919 72.2716C63.1128 71.9849 62.9251 71.6219 62.8524 71.2284C62.7798 70.835 62.8256 70.4288 62.9839 70.0614C63.1423 69.694 63.4061 69.3818 63.742 69.1645C64.0779 68.9471 64.4707 68.8343 64.8708 68.8404C65.2708 68.8465 65.66 68.9712 65.9891 69.1987C66.3183 69.4261 66.5725 69.7462 66.7196 70.1182C66.8667 70.4903 66.9001 70.8977 66.8155 71.2887C66.7013 71.8107 66.3856 72.2665 65.9369 72.5568C65.4883 72.8471 64.9432 72.9484 64.4202 72.8387ZM63.4485 66.2841C63.2124 66.2335 62.9687 66.2299 62.7312 66.2736C62.4937 66.3172 62.2672 66.4073 62.0646 66.5386C61.862 66.67 61.6872 66.84 61.5504 67.0389C61.4135 67.2378 61.3172 67.4618 61.267 67.698L60.2516 72.4257C56.9952 73.9002 53.4598 74.6569 49.8852 74.6443C46.3106 74.6317 42.7805 73.8502 39.5346 72.3528L38.5192 67.6251C38.4166 67.1488 38.1294 66.7325 37.7205 66.4674C37.3116 66.2024 36.8144 66.1103 36.3377 66.2112L32.1642 67.1052C31.3895 66.307 30.6688 65.4581 30.007 64.564H50.3158C50.5442 64.564 50.6996 64.5203 50.6996 64.3114V57.1106C50.6996 56.9016 50.5442 56.8579 50.3158 56.8579H44.3738V52.3051H50.7968C51.7509 52.3139 52.6711 52.6603 53.3942 53.2829C54.1172 53.9055 54.5965 54.7641 54.7468 55.7063C54.9995 56.7073 55.5631 59.9676 55.9469 61.0122C56.1993 61.8532 56.6612 62.6162 57.2893 63.2298C57.9173 63.8434 58.6908 64.2875 59.5374 64.5203H69.6578C69.78 64.5196 69.9019 64.5082 70.0222 64.4863C69.3215 65.4404 68.5535 66.3432 67.7241 67.1878L63.4534 66.2695L63.4485 66.2841ZM35.366 72.7415C34.9751 72.8258 34.5681 72.7923 34.1963 72.6452C33.8245 72.4982 33.5047 72.2441 33.2773 71.9152C33.0499 71.5863 32.9252 71.1974 32.9188 70.7976C32.9125 70.3978 33.0249 70.0051 33.2418 69.6692C33.4587 69.3333 33.7704 69.0693 34.1373 68.9105C34.5043 68.7518 34.9101 68.7054 35.3034 68.7774C35.6967 68.8493 36.0599 69.0363 36.3469 69.3147C36.6339 69.593 36.8319 69.9503 36.9159 70.3412C36.9737 70.6013 36.9793 70.8703 36.9326 71.1326C36.8858 71.3949 36.7875 71.6453 36.6434 71.8694C36.4993 72.0935 36.3122 72.2868 36.093 72.4382C35.8737 72.5895 35.6266 72.6959 35.366 72.7512V72.7415ZM27.6506 41.5136C27.8113 41.8784 27.8604 42.2826 27.7915 42.6752C27.7226 43.0678 27.5389 43.4312 27.2636 43.7195C26.9884 44.0078 26.6338 44.208 26.2448 44.2948C25.8558 44.3816 25.4498 44.3512 25.078 44.2074C24.7063 44.0636 24.3855 43.8128 24.1562 43.4868C23.9269 43.1607 23.7994 42.774 23.7898 42.3755C23.7802 41.977 23.8889 41.5846 24.1021 41.2478C24.3154 40.9111 24.6237 40.6451 24.9881 40.4835C25.4778 40.2677 26.0331 40.255 26.5323 40.4481C27.0314 40.6412 27.4336 41.0244 27.6506 41.5136ZM25.299 47.1256L29.6474 45.182C30.088 44.9806 30.4314 44.6136 30.6033 44.1607C30.7752 43.7078 30.7617 43.2054 30.5657 42.7623L29.6863 40.7362H33.2039V56.6101H26.1007C25.4629 54.3987 25.1359 52.1092 25.129 49.8077C25.1295 48.915 25.1765 48.023 25.2699 47.1353L25.299 47.1256ZM44.3786 45.5853V40.9111H52.7645C53.4794 40.9103 54.1729 41.1543 54.7298 41.6025C55.2867 42.0507 55.6734 42.676 55.8254 43.3745C55.6117 44.1417 55.1127 44.798 54.4307 45.209C53.7487 45.6201 52.9353 45.7547 52.1572 45.5853H44.3786ZM74.8516 49.7931C74.8516 50.415 74.8289 51.0289 74.7836 51.6346H72.228C72.1749 51.6321 72.122 51.6417 72.0732 51.6627C72.0244 51.6838 71.981 51.7156 71.9463 51.7559C71.9117 51.7962 71.8867 51.8438 71.8732 51.8952C71.8597 51.9466 71.858 52.0004 71.8684 52.0525V53.2283C71.9406 53.6554 71.9196 54.093 71.807 54.5112C71.6944 54.9294 71.4928 55.3184 71.216 55.6515C70.9392 55.9846 70.5937 56.254 70.2032 56.4412C69.8127 56.6285 69.3863 56.7292 68.9533 56.7364C68.389 56.8407 67.8062 56.7684 67.2845 56.5292C66.7628 56.2901 66.3275 55.8959 66.0381 55.4002C65.9453 54.0276 65.53 52.6962 64.826 51.5142C64.1219 50.3322 63.1489 49.333 61.9861 48.5978C63.3545 47.9361 64.5368 46.9444 65.4265 45.7119C66.3162 44.4795 66.8854 43.0451 67.0827 41.5379C67.0326 40.2079 66.6507 38.9116 65.9718 37.7668C65.293 36.6221 64.3388 35.6652 63.1959 34.9833C61.5948 33.9489 59.7541 33.3448 57.8515 33.2292H31.4888C35.1309 29.152 40.0173 26.3918 45.3892 25.3773L48.4987 28.623C48.8361 28.9748 49.2991 29.1784 49.7863 29.1894C50.2736 29.2003 50.7452 29.0176 51.098 28.6813L54.5768 25.3676C58.1202 26.0338 61.4765 27.4626 64.4128 29.5551C67.3491 31.6476 69.7953 34.3536 71.5818 37.4856L69.2059 42.8595C69.0095 43.3062 68.9979 43.8125 69.1736 44.2677C69.3493 44.7229 69.698 45.0901 70.1436 45.2889L74.7253 47.3297C74.8079 48.1411 74.8467 48.9671 74.8467 49.798L74.8516 49.7931ZM48.5036 22.5835C48.7925 22.3091 49.1562 22.1266 49.5488 22.0588C49.9415 21.991 50.3453 22.0411 50.7095 22.2027C51.0737 22.3643 51.3819 22.6301 51.5951 22.9667C51.8083 23.3033 51.917 23.6955 51.9075 24.0938C51.8981 24.4922 51.7708 24.8788 51.5418 25.2048C51.3128 25.5309 50.9923 25.7818 50.6209 25.9258C50.2494 26.0699 49.8436 26.1007 49.4547 26.0143C49.0657 25.9279 48.7111 25.7283 48.4355 25.4405C48.07 25.0547 47.8715 24.5401 47.8834 24.0087C47.8952 23.4773 48.1163 22.9721 48.4987 22.6029L48.5036 22.5835ZM72.1259 41.5913C72.2886 41.2276 72.5554 40.9203 72.8926 40.708C73.2298 40.4958 73.6223 40.3883 74.0206 40.399C74.4189 40.4097 74.8051 40.5381 75.1304 40.7681C75.4557 40.9981 75.7057 41.3194 75.8486 41.6913C75.9915 42.0632 76.0211 42.4691 75.9335 42.8578C75.846 43.2465 75.6452 43.6006 75.3566 43.8753C75.068 44.15 74.7045 44.333 74.312 44.4013C73.9194 44.4696 73.5155 44.42 73.1511 44.2589C72.6664 44.0409 72.2871 43.6408 72.0952 43.1452C71.9034 42.6496 71.9144 42.0983 72.1259 41.6108V41.5913Z" fill="black"/>
</g>
<defs>
<clipPath id="clip0_630_176">
<rect width="100" height="100" rx="50" fill="white"/>
</clipPath>
</defs>
</svg>
