<svg width="187" height="90" viewBox="0 0 187 90" fill="none" xmlns="http://www.w3.org/2000/svg">
<g filter="url(#filter0_d_870_1215)">
<rect x="4" width="179" height="82" rx="15" fill="white"/>
<path d="M89.34 54.27V54.97H81.39V54.27H89.34ZM85.78 52.87V54.56H84.93V52.87H85.78ZM88.41 52.6V53.3H82.39V52.6H88.41ZM88.35 50.36V51.06H83.24V53.02H82.39V50.36H88.35ZM85.35 55.58C86.29 55.58 87.0267 55.72 87.56 56C88.1 56.2733 88.37 56.66 88.37 57.16C88.37 57.6667 88.1033 58.0567 87.57 58.33C87.0367 58.61 86.2967 58.75 85.35 58.75C84.4033 58.75 83.6633 58.61 83.13 58.33C82.5967 58.0567 82.33 57.6667 82.33 57.16C82.33 56.66 82.5967 56.2733 83.13 56C83.6633 55.72 84.4033 55.58 85.35 55.58ZM85.35 56.25C84.67 56.25 84.14 56.33 83.76 56.49C83.3867 56.65 83.2 56.8733 83.2 57.16C83.2 57.46 83.3867 57.69 83.76 57.85C84.14 58.0033 84.67 58.08 85.35 58.08C86.03 58.08 86.5567 58.0033 86.93 57.85C87.3033 57.69 87.49 57.46 87.49 57.16C87.49 56.8733 87.3033 56.65 86.93 56.49C86.5567 56.33 86.03 56.25 85.35 56.25ZM92.4702 50.62C92.8969 50.62 93.2769 50.7467 93.6102 51C93.9502 51.2533 94.2136 51.6133 94.4002 52.08C94.5869 52.54 94.6802 53.08 94.6802 53.7C94.6802 54.32 94.5869 54.8633 94.4002 55.33C94.2136 55.7967 93.9502 56.1567 93.6102 56.41C93.2769 56.6567 92.8969 56.78 92.4702 56.78C92.0302 56.78 91.6436 56.6567 91.3102 56.41C90.9769 56.1567 90.7136 55.7967 90.5202 55.33C90.3336 54.8567 90.2402 54.3133 90.2402 53.7C90.2402 53.08 90.3336 52.54 90.5202 52.08C90.7136 51.6133 90.9769 51.2533 91.3102 51C91.6436 50.7467 92.0302 50.62 92.4702 50.62ZM92.4702 51.4C92.1969 51.4 91.9536 51.4933 91.7402 51.68C91.5269 51.8667 91.3602 52.1333 91.2402 52.48C91.1269 52.8267 91.0702 53.2333 91.0702 53.7C91.0702 54.16 91.1269 54.5667 91.2402 54.92C91.3602 55.2667 91.5269 55.5367 91.7402 55.73C91.9536 55.9167 92.1969 56.01 92.4702 56.01C92.7436 56.01 92.9836 55.9167 93.1902 55.73C93.4036 55.5367 93.5669 55.2667 93.6802 54.92C93.8002 54.5667 93.8602 54.16 93.8602 53.7C93.8602 53.2333 93.8002 52.8267 93.6802 52.48C93.5669 52.1333 93.4036 51.8667 93.1902 51.68C92.9836 51.4933 92.7436 51.4 92.4702 51.4ZM96.9102 49.96V58.76H96.0402V49.96H96.9102ZM98.3302 53.45V54.17H96.7102V53.45H98.3302ZM106.09 49.94V58.77H105.22V49.94H106.09ZM100.1 55.93C100.914 55.93 101.654 55.91 102.32 55.87C102.994 55.8233 103.694 55.74 104.42 55.62L104.51 56.33C103.777 56.45 103.07 56.5333 102.39 56.58C101.71 56.62 100.947 56.64 100.1 56.64H99.3605V55.93H100.1ZM103.42 50.77V53.94H100.23V56.21H99.3605V53.24H102.55V51.47H99.3405V50.77H103.42ZM113.235 55.24V56.69H112.365V55.24H113.235ZM117.085 49.96V58.76H116.225V49.96H117.085ZM109.945 56.38C111.059 56.38 112.082 56.3633 113.015 56.33C113.949 56.2967 114.835 56.2233 115.675 56.11L115.735 56.75C114.875 56.9033 113.989 57.0033 113.075 57.05C112.162 57.09 111.159 57.11 110.065 57.11L109.945 56.38ZM115.465 51.02V51.71H110.125V51.02H115.465ZM112.795 52.2C113.209 52.2 113.575 52.2667 113.895 52.4C114.222 52.5333 114.475 52.7267 114.655 52.98C114.835 53.2267 114.925 53.51 114.925 53.83C114.925 54.15 114.835 54.4333 114.655 54.68C114.475 54.9267 114.222 55.12 113.895 55.26C113.575 55.3933 113.209 55.46 112.795 55.46C112.375 55.46 112.005 55.3933 111.685 55.26C111.365 55.12 111.115 54.9267 110.935 54.68C110.762 54.4333 110.675 54.15 110.675 53.83C110.675 53.51 110.762 53.2267 110.935 52.98C111.115 52.7267 111.365 52.5333 111.685 52.4C112.005 52.2667 112.375 52.2 112.795 52.2ZM112.795 52.86C112.409 52.86 112.095 52.95 111.855 53.13C111.615 53.3033 111.495 53.5367 111.495 53.83C111.495 54.1167 111.615 54.35 111.855 54.53C112.095 54.7033 112.409 54.79 112.795 54.79C113.189 54.79 113.502 54.7033 113.735 54.53C113.975 54.3567 114.095 54.1233 114.095 53.83C114.095 53.5367 113.975 53.3033 113.735 53.13C113.495 52.95 113.182 52.86 112.795 52.86ZM113.235 49.96V51.4H112.365V49.96H113.235ZM125.856 49.94V58.77H124.986V49.94H125.856ZM119.996 50.7V52.99H122.446V50.7H123.296V56.65H119.136V50.7H119.996ZM119.996 55.94H122.446V53.67H119.996V55.94ZM136.531 49.93V54.77H135.661V49.93H136.531ZM137.821 52.01V52.73H136.171V52.01H137.821ZM136.531 55.21V57.21H131.791V58.24H130.941V56.59H135.681V55.86H130.921V55.21H136.531ZM136.841 58V58.66H130.941V58H136.841ZM134.911 50.72V51.4H129.711V50.72H134.911ZM132.311 51.76C132.951 51.76 133.461 51.89 133.841 52.15C134.227 52.41 134.421 52.7633 134.421 53.21C134.421 53.65 134.227 54 133.841 54.26C133.461 54.52 132.947 54.65 132.301 54.65C131.661 54.65 131.151 54.52 130.771 54.26C130.391 54 130.201 53.65 130.201 53.21C130.201 52.77 130.391 52.42 130.771 52.16C131.151 51.8933 131.664 51.76 132.311 51.76ZM132.311 52.4C131.917 52.4 131.604 52.4733 131.371 52.62C131.137 52.7667 131.021 52.9633 131.021 53.21C131.021 53.4567 131.137 53.6533 131.371 53.8C131.604 53.9467 131.917 54.02 132.311 54.02C132.697 54.02 133.007 53.9467 133.241 53.8C133.474 53.6533 133.591 53.4567 133.591 53.21C133.591 52.9633 133.474 52.7667 133.241 52.62C133.007 52.4733 132.697 52.4 132.311 52.4ZM132.741 49.86V51.19H131.881V49.86H132.741ZM145.651 49.96V56.37H144.781V49.96H145.651ZM145.911 57.86V58.56H139.981V57.86H145.911ZM140.841 55.72V58.1H139.981V55.72H140.841ZM140.921 50.56C141.354 50.56 141.747 50.6533 142.101 50.84C142.454 51.0267 142.731 51.2867 142.931 51.62C143.131 51.9533 143.231 52.3267 143.231 52.74C143.231 53.16 143.131 53.5333 142.931 53.86C142.731 54.1867 142.454 54.4433 142.101 54.63C141.747 54.8167 141.354 54.91 140.921 54.91C140.487 54.91 140.094 54.8167 139.741 54.63C139.394 54.4433 139.117 54.1867 138.911 53.86C138.711 53.5267 138.611 53.1533 138.611 52.74C138.611 52.3267 138.711 51.9533 138.911 51.62C139.117 51.2867 139.394 51.0267 139.741 50.84C140.094 50.6533 140.487 50.56 140.921 50.56ZM140.921 51.31C140.647 51.31 140.397 51.37 140.171 51.49C139.951 51.61 139.777 51.78 139.651 52C139.524 52.22 139.461 52.4667 139.461 52.74C139.461 53.0133 139.524 53.2567 139.651 53.47C139.777 53.6833 139.951 53.85 140.171 53.97C140.397 54.09 140.647 54.15 140.921 54.15C141.201 54.15 141.451 54.09 141.671 53.97C141.891 53.85 142.064 53.6833 142.191 53.47C142.324 53.2567 142.391 53.0133 142.391 52.74C142.391 52.4667 142.324 52.22 142.191 52C142.064 51.78 141.887 51.61 141.661 51.49C141.441 51.37 141.194 51.31 140.921 51.31ZM155.826 53.06L150.326 53.33L150.216 52.59L155.826 52.4V53.06ZM155.966 50.5V51.21H150.476V50.5H155.966ZM157.436 54.69V55.4H149.476V54.69H157.436ZM153.886 55.23V58.76H153.026V55.23H153.886ZM156.436 50.5V51.3C156.436 51.96 156.416 52.5533 156.376 53.08C156.336 53.6 156.239 54.2033 156.086 54.89L155.236 54.79C155.396 54.1367 155.496 53.5567 155.536 53.05C155.576 52.5367 155.596 51.9533 155.596 51.3V50.5H156.436ZM165.406 50.35V51.05H158.946V50.35H165.406ZM165.376 52.98V53.67H158.986V52.98H165.376ZM161.116 50.67V53.3H160.246V50.67H161.116ZM164.116 50.67V53.3H163.256V50.67H164.116ZM166.166 54.7V55.4H158.216V54.7H166.166ZM162.616 53.44V55.13H161.756V53.44H162.616ZM165.286 57.86V58.57H159.236V57.86H165.286ZM160.096 56.14V58.09H159.236V56.14H160.096Z" fill="#7E7E7E"/>
<path d="M88.848 33.286C89.424 33.622 89.886 34.078 90.234 34.654C90.582 35.218 90.756 35.782 90.756 36.346C90.756 37.078 90.564 37.738 90.18 38.326C89.808 38.902 89.286 39.352 88.614 39.676C87.942 40 87.174 40.162 86.31 40.162C85.458 40.162 84.696 39.994 84.024 39.658C83.352 39.322 82.824 38.86 82.44 38.272C82.068 37.672 81.882 36.994 81.882 36.238H83.79C83.79 36.67 83.898 37.054 84.114 37.39C84.33 37.726 84.624 37.99 84.996 38.182C85.38 38.374 85.818 38.47 86.31 38.47C86.814 38.47 87.258 38.374 87.642 38.182C88.038 37.99 88.344 37.726 88.56 37.39C88.788 37.054 88.902 36.67 88.902 36.238C88.902 35.818 88.794 35.446 88.578 35.122C88.362 34.798 88.056 34.546 87.66 34.366C87.276 34.174 86.838 34.078 86.346 34.078H85.41V32.476H86.364C86.82 32.476 87.222 32.392 87.57 32.224C87.93 32.056 88.206 31.828 88.398 31.54C88.602 31.24 88.704 30.898 88.704 30.514C88.704 29.926 88.494 29.452 88.074 29.092C87.654 28.72 87.108 28.534 86.436 28.534C85.992 28.534 85.602 28.618 85.266 28.786C84.93 28.954 84.666 29.194 84.474 29.506C84.282 29.806 84.186 30.148 84.186 30.532H82.278C82.278 29.812 82.452 29.176 82.8 28.624C83.16 28.06 83.652 27.622 84.276 27.31C84.912 26.998 85.632 26.842 86.436 26.842C87.228 26.842 87.936 26.998 88.56 27.31C89.184 27.61 89.67 28.03 90.018 28.57C90.378 29.11 90.558 29.722 90.558 30.406C90.558 30.922 90.402 31.45 90.09 31.99C89.778 32.518 89.364 32.95 88.848 33.286ZM97.4308 38.488C98.0188 38.488 98.5408 38.278 98.9968 37.858C99.4528 37.438 99.8068 36.856 100.059 36.112C100.311 35.356 100.437 34.486 100.437 33.502C100.437 32.518 100.311 31.648 100.059 30.892C99.8068 30.136 99.4528 29.548 98.9968 29.128C98.5408 28.708 98.0188 28.498 97.4308 28.498C96.8428 28.498 96.3148 28.708 95.8468 29.128C95.3908 29.548 95.0368 30.136 94.7848 30.892C94.5328 31.648 94.4068 32.518 94.4068 33.502C94.4068 34.486 94.5328 35.356 94.7848 36.112C95.0368 36.856 95.3908 37.438 95.8468 37.858C96.3148 38.278 96.8428 38.488 97.4308 38.488ZM97.4308 40.18C96.4828 40.18 95.6308 39.898 94.8748 39.334C94.1308 38.758 93.5488 37.966 93.1288 36.958C92.7088 35.938 92.4988 34.786 92.4988 33.502C92.4988 32.206 92.7088 31.054 93.1288 30.046C93.5488 29.026 94.1308 28.234 94.8748 27.67C95.6188 27.106 96.4708 26.824 97.4308 26.824C98.3788 26.824 99.2248 27.106 99.9688 27.67C100.713 28.234 101.295 29.026 101.715 30.046C102.135 31.054 102.345 32.206 102.345 33.502C102.345 34.786 102.135 35.938 101.715 36.958C101.295 37.966 100.713 38.758 99.9688 39.334C99.2248 39.898 98.3788 40.18 97.4308 40.18ZM109.015 38.488C109.603 38.488 110.125 38.278 110.581 37.858C111.037 37.438 111.391 36.856 111.643 36.112C111.895 35.356 112.021 34.486 112.021 33.502C112.021 32.518 111.895 31.648 111.643 30.892C111.391 30.136 111.037 29.548 110.581 29.128C110.125 28.708 109.603 28.498 109.015 28.498C108.427 28.498 107.899 28.708 107.431 29.128C106.975 29.548 106.621 30.136 106.369 30.892C106.117 31.648 105.991 32.518 105.991 33.502C105.991 34.486 106.117 35.356 106.369 36.112C106.621 36.856 106.975 37.438 107.431 37.858C107.899 38.278 108.427 38.488 109.015 38.488ZM109.015 40.18C108.067 40.18 107.215 39.898 106.459 39.334C105.715 38.758 105.133 37.966 104.713 36.958C104.293 35.938 104.083 34.786 104.083 33.502C104.083 32.206 104.293 31.054 104.713 30.046C105.133 29.026 105.715 28.234 106.459 27.67C107.203 27.106 108.055 26.824 109.015 26.824C109.963 26.824 110.809 27.106 111.553 27.67C112.297 28.234 112.879 29.026 113.299 30.046C113.719 31.054 113.929 32.206 113.929 33.502C113.929 34.786 113.719 35.938 113.299 36.958C112.879 37.966 112.297 38.758 111.553 39.334C110.809 39.898 109.963 40.18 109.015 40.18ZM120.599 38.488C121.187 38.488 121.709 38.278 122.165 37.858C122.621 37.438 122.975 36.856 123.227 36.112C123.479 35.356 123.605 34.486 123.605 33.502C123.605 32.518 123.479 31.648 123.227 30.892C122.975 30.136 122.621 29.548 122.165 29.128C121.709 28.708 121.187 28.498 120.599 28.498C120.011 28.498 119.483 28.708 119.015 29.128C118.559 29.548 118.205 30.136 117.953 30.892C117.701 31.648 117.575 32.518 117.575 33.502C117.575 34.486 117.701 35.356 117.953 36.112C118.205 36.856 118.559 37.438 119.015 37.858C119.483 38.278 120.011 38.488 120.599 38.488ZM120.599 40.18C119.651 40.18 118.799 39.898 118.043 39.334C117.299 38.758 116.717 37.966 116.297 36.958C115.877 35.938 115.667 34.786 115.667 33.502C115.667 32.206 115.877 31.054 116.297 30.046C116.717 29.026 117.299 28.234 118.043 27.67C118.787 27.106 119.639 26.824 120.599 26.824C121.547 26.824 122.393 27.106 123.137 27.67C123.881 28.234 124.463 29.026 124.883 30.046C125.303 31.054 125.513 32.206 125.513 33.502C125.513 34.786 125.303 35.938 124.883 36.958C124.463 37.966 123.881 38.758 123.137 39.334C122.393 39.898 121.547 40.18 120.599 40.18ZM133.281 33.592V37.102H131.301V33.592H133.281ZM140.319 25.42V37.588H138.339V25.42H140.319ZM140.697 39.55V41.134H129.015V39.55H140.697ZM130.995 36.418V39.982H129.015V36.418H130.995ZM126.909 32.638C128.961 32.626 130.809 32.59 132.453 32.53C134.097 32.47 135.669 32.35 137.169 32.17L137.277 33.574C135.765 33.826 134.193 33.994 132.561 34.078C130.929 34.162 129.129 34.21 127.161 34.222L126.909 32.638ZM138.807 34.798V36.166H135.243V34.798H138.807ZM132.093 26.014C132.861 26.014 133.545 26.134 134.145 26.374C134.745 26.602 135.213 26.932 135.549 27.364C135.885 27.796 136.053 28.288 136.053 28.84C136.053 29.404 135.885 29.902 135.549 30.334C135.213 30.766 134.745 31.102 134.145 31.342C133.545 31.57 132.855 31.684 132.075 31.684C131.295 31.684 130.605 31.57 130.005 31.342C129.405 31.102 128.937 30.766 128.601 30.334C128.265 29.902 128.097 29.404 128.097 28.84C128.097 28.288 128.265 27.796 128.601 27.364C128.937 26.932 129.405 26.602 130.005 26.374C130.617 26.134 131.313 26.014 132.093 26.014ZM132.093 27.454C131.457 27.454 130.947 27.58 130.563 27.832C130.179 28.072 129.987 28.408 129.987 28.84C129.987 29.272 130.179 29.614 130.563 29.866C130.947 30.106 131.457 30.226 132.093 30.226C132.717 30.226 133.215 30.106 133.587 29.866C133.971 29.614 134.163 29.272 134.163 28.84C134.163 28.408 133.971 28.072 133.587 27.832C133.215 27.58 132.717 27.454 132.093 27.454Z" fill="black"/>
</g>
<path d="M37.6001 46.4L48.4001 35.6M38.4309 36.424L38.4097 36.4026M47.5967 45.684L47.5755 45.6626M36.8844 29.581L35.3575 29.674C33.3754 29.7947 31.7948 31.3752 31.6741 33.3574L31.5811 34.8843C31.5277 35.7601 31.1828 36.5929 30.6012 37.25L29.5873 38.3954C28.271 39.8823 28.271 42.1176 29.5873 43.6046L30.6012 44.75C31.1828 45.407 31.5277 46.2398 31.5811 47.1157L31.6741 48.6425C31.7948 50.6247 33.3754 52.2053 35.3575 52.326L36.8844 52.419C37.7602 52.4723 38.5931 52.8173 39.2501 53.3989L40.3955 54.4128C41.8825 55.729 44.1177 55.729 45.6047 54.4128L46.7501 53.3989C47.4071 52.8173 48.2399 52.4723 49.1158 52.419L50.6427 52.326C52.6248 52.2053 54.2054 50.6247 54.3261 48.6425L54.4191 47.1157C54.4724 46.2398 54.8174 45.407 55.399 44.75L56.4129 43.6046C57.7292 42.1176 57.7292 39.8823 56.4129 38.3954L55.399 37.25C54.8174 36.5929 54.4724 35.7601 54.4191 34.8843L54.3261 33.3574C54.2054 31.3752 52.6248 29.7947 50.6427 29.674L49.1158 29.581C48.2399 29.5276 47.4071 29.1827 46.7501 28.6011L45.6047 27.5872C44.1177 26.2709 41.8825 26.2709 40.3955 27.5872L39.2501 28.6011C38.5931 29.1827 37.7602 29.5276 36.8844 29.581Z" stroke="black" stroke-width="2" stroke-linecap="round"/>
<defs>
<filter id="filter0_d_870_1215" x="0" y="0" width="187" height="90" filterUnits="userSpaceOnUse" color-interpolation-filters="sRGB">
<feFlood flood-opacity="0" result="BackgroundImageFix"/>
<feColorMatrix in="SourceAlpha" type="matrix" values="0 0 0 0 0 0 0 0 0 0 0 0 0 0 0 0 0 0 127 0" result="hardAlpha"/>
<feOffset dy="4"/>
<feGaussianBlur stdDeviation="2"/>
<feComposite in2="hardAlpha" operator="out"/>
<feColorMatrix type="matrix" values="0 0 0 0 0 0 0 0 0 0 0 0 0 0 0 0 0 0 0.25 0"/>
<feBlend mode="normal" in2="BackgroundImageFix" result="effect1_dropShadow_870_1215"/>
<feBlend mode="normal" in="SourceGraphic" in2="effect1_dropShadow_870_1215" result="shape"/>
</filter>
</defs>
</svg>
