<svg viewBox="0 0 212.6 212.6" xmlns="http://www.w3.org/2000/svg"><circle cx="106.3" cy="106.3" fill="#fff" r="87.73" stroke="#040000" stroke-miterlimit="10" stroke-width="30"/><circle cx="106.3" cy="106.3" fill="none" r="104.17" stroke="#fff" stroke-miterlimit="10" stroke-width="3"/><circle cx="105.95" cy="106.45" fill="none" r="87.73"/><path d="m72.38 33.63-.27-14.52 4.25-1.53 9.04 11.36-3.38 1.22-2.54-3.18-3.77 2.66.04 2.77-3.38 1.22zm3.27-7.43 2.04-1.45-2.12-2.67.07 4.12z" fill="#fff"/><path d="m97.83 18.3.44 2.94-6.71 1 .38 2.56 7.21-1.08.44 2.92-10.76 1.61-2.03-13.61 10.59-1.58.44 2.94-7.03 1.05.34 2.25 6.71-1z" fill="#fff"/><path d="m110.74 24.1c.91.05 1.68-.12 2.29-.52.61-.38.99-.97 1.15-1.75l-3.63-.2.16-2.96 7.24.39-.1 1.91c-.06 1.07-.3 1.99-.68 2.76-.42.79-.94 1.42-1.59 1.94-.67.5-1.43.87-2.27 1.12-.86.23-1.76.32-2.69.27-1.05-.06-2-.3-2.88-.69-.89-.41-1.66-.95-2.28-1.61-.64-.67-1.11-1.46-1.44-2.38-.35-.9-.49-1.88-.43-2.94.06-1.05.3-2.01.74-2.88.43-.86.98-1.59 1.71-2.21.69-.58 1.51-1.04 2.46-1.35.93-.3 1.92-.43 2.99-.37 1.41.08 2.64.44 3.64 1.06 1 .64 1.89 1.55 2.65 2.73l-2.47 1.85c-.39-.78-.91-1.41-1.57-1.9-.68-.49-1.5-.75-2.46-.81-.52-.03-1.02.05-1.5.23-.49.18-.91.45-1.27.8-.38.36-.68.79-.92 1.3-.25.52-.39 1.1-.42 1.74-.04.65.02 1.23.2 1.76.16.54.41 1.01.74 1.39.32.4.71.71 1.18.93.44.23.93.36 1.48.39z" fill="#fff"/><path d="m128.13 15.46-2.99 13.43-3.5-.78 2.99-13.43z" fill="#fff"/><path d="m132.31 26.18c.38.7.88 1.36 1.54 1.95.64.6 1.37 1.05 2.18 1.34.53.21.95.27 1.27.21.3-.05.51-.23.63-.53.14-.35.1-.68-.09-1.02-.21-.32-.62-.7-1.2-1.15-.52-.38-1.03-.79-1.55-1.21-.54-.41-1-.87-1.36-1.38-.38-.5-.63-1.06-.75-1.66-.14-.61-.06-1.28.24-2.05.26-.68.61-1.21 1.08-1.6.44-.38.95-.65 1.54-.79.57-.13 1.19-.15 1.86-.08.65.09 1.33.25 2 .52.47.18.91.39 1.32.62.39.23.77.48 1.14.78.35.3.68.63 1.02.99.3.36.63.76.95 1.22l-2.32 2.06c-.37-.59-.82-1.13-1.35-1.59-.54-.47-1.16-.84-1.82-1.13-.23-.09-.43-.17-.63-.23-.22-.05-.42-.07-.59-.06-.19.02-.34.07-.46.14-.14.08-.24.19-.3.35s-.1.31-.08.45c-.02.14.03.31.14.46.08.16.25.36.49.56.21.21.51.46.92.74.6.45 1.18.92 1.72 1.35.51.46.94.92 1.27 1.4.33.5.52 1.04.6 1.6.07.58-.03 1.23-.3 1.94-.26.68-.61 1.21-1.06 1.59s-.98.66-1.55.81c-.59.14-1.23.17-1.92.09-.71-.09-1.43-.28-2.17-.56-1.08-.42-2.01-.96-2.81-1.64-.81-.68-1.5-1.47-2.07-2.34l2.46-2.14z" fill="#fff"/><path d="m152.78 100c-2.71-9.05-5.43-28.84-1.36-41.26.39-1.19-.8-2.28-1.96-1.81-7.6 3.11-26.79 8.64-42.22-6.42-.59-.58-1.51-.58-2.1 0-15.43 15.06-34.62 9.53-42.22 6.42-1.16-.47-2.35.62-1.96 1.81 4.07 12.43 1.36 32.22-1.36 41.26-2.97 9.91-7.93 44.61 17.84 50.56 18.34 4.23 25.14 10.98 27.53 14.51.58.86 1.85.86 2.43 0 2.39-3.54 9.19-10.28 27.53-14.51 25.78-5.95 20.82-40.65 17.84-50.56z" fill="#040000" stroke="#070102" stroke-miterlimit="10" stroke-width="3"/><g fill="#fff"><path d="m121.56 123.31c0-1.4.63-2.72 1.71-3.61l1.95-1.6c.51-.42.21-1.24-.44-1.24h-4.12c-.2 0-.34-.19-.29-.38l1.18-4.4c1.42-3.2 2.29-6.89 2.45-10.83 8.96-1.87 14.89-4.98 14.89-8.03s-5.35-5.06-13.56-6.32c0-.2.02-.4 0-.6l-.35-9.9c-.16-4.53-3.73-8.12-8.08-8.12l-10.53.99-10.95-.99c-4.35 0-7.92 3.59-8.08 8.12l-.35 9.9v.6c-8.21 1.26-13.56 3.43-13.56 6.32 0 3.05 5.93 6.16 14.89 8.03.15 3.94 1.03 7.62 2.45 10.83l1.51 4.23c.09.27-.1.55-.38.55h-4.35c-.66 0-.95.82-.44 1.24l1.96 1.6c1.08.89 1.71 2.21 1.71 3.61-12.88 2.57-23.41 8.29-29.1 15.66 3.09 5.47 8.03 9.82 15.72 11.59 18.34 4.23 25.14 10.98 27.53 14.51.58.86 1.85.86 2.43 0 2.39-3.54 9.19-10.28 27.53-14.51 7.69-1.78 12.63-6.12 15.72-11.59-5.69-7.36-16.21-13.08-29.1-15.66z"/><path d="m190.71 123.16s-13.59 13.87-7.66 20.91c0 0 10.08-10.9 7.66-20.91z"/><path d="m176.01 162.28s1.93-4.28-.41-10.49c-2.35-6.21 1.17-9.18 3.8-12.35 0 0 7.45 16.84-3.38 22.84z"/><path d="m189.4 137.02s-5.08 8.05-4.69 12.14c.28 2.9-1.66 7.18-1.66 7.18s11.18-11.59 6.35-19.32z"/><path d="m191.19 149.72s-7.18 10.63-19.8 16.21c0 0 16.63 5.73 19.8-16.21z"/><path d="m175.46 156.48s-13.59 1.59-15.66 10.56-2.49 10.76-6.21 14.63c0 0 10.5-4.29 14.91-15.45 1.2-3.03 1.24-5.38 6.97-9.73z"/><path d="m180.15 168.9s-8.07-1.86-12.21 3.79c-4.14 5.66-7.45 7.73-7.45 7.73s13.18.21 19.67-11.52z"/><path d="m23.31 123.46s13.59 13.87 7.66 20.91c0 0-10.08-10.9-7.66-20.91z"/><path d="m38.02 162.58s-1.93-4.28.41-10.49c2.35-6.21-1.17-9.18-3.8-12.35 0 0-7.45 16.84 3.38 22.84z"/><path d="m24.63 137.33s5.08 8.05 4.69 12.14c-.28 2.9 1.66 7.18 1.66 7.18s-11.18-11.59-6.35-19.32z"/><path d="m22.83 150.03s7.18 10.63 19.8 16.21c0 0-16.63 5.73-19.8-16.21z"/><path d="m38.57 156.79s13.59 1.59 15.66 10.56 2.49 10.76 6.21 14.63c0 0-10.5-4.29-14.91-15.45-1.2-3.03-1.24-5.38-6.97-9.73z"/><path d="m33.88 169.21s8.07-1.86 12.21 3.79c4.14 5.66 7.45 7.73 7.45 7.73s-13.18.21-19.67-11.52z"/></g></svg>