<svg width="36" height="36" viewBox="0 0 36 36" fill="none" xmlns="http://www.w3.org/2000/svg">
<path d="M12.6001 23.4001L23.4001 12.6001M13.4309 13.4241L13.4097 13.4027M22.5967 22.6841L22.5755 22.6627M11.8844 6.58109L10.3575 6.67408C8.37537 6.79479 6.79479 8.37537 6.67408 10.3575L6.58109 11.8844C6.52774 12.7602 6.18278 13.5931 5.60118 14.2501L4.58727 15.3955C3.27104 16.8825 3.27104 19.1177 4.58728 20.6047L5.60118 21.7501C6.18278 22.4071 6.52774 23.2399 6.58109 24.1158L6.67408 25.6427C6.79479 27.6248 8.37537 29.2054 10.3575 29.3261L11.8844 29.4191C12.7602 29.4724 13.5931 29.8174 14.2501 30.399L15.3955 31.4129C16.8825 32.7292 19.1177 32.7292 20.6047 31.4129L21.7501 30.399C22.4071 29.8174 23.2399 29.4724 24.1158 29.4191L25.6427 29.3261C27.6248 29.2054 29.2054 27.6248 29.3261 25.6427L29.4191 24.1158C29.4724 23.2399 29.8174 22.4071 30.399 21.7501L31.4129 20.6047C32.7292 19.1177 32.7292 16.8825 31.4129 15.3955L30.399 14.2501C29.8174 13.5931 29.4724 12.7602 29.4191 11.8844L29.3261 10.3575C29.2054 8.37537 27.6248 6.79479 25.6427 6.67407L24.1158 6.58109C23.2399 6.52774 22.4071 6.18278 21.7501 5.60118L20.6047 4.58727C19.1177 3.27104 16.8825 3.27104 15.3955 4.58728L14.2501 5.60118C13.5931 6.18278 12.7602 6.52774 11.8844 6.58109Z" stroke="black" stroke-width="2" stroke-linecap="round"/>
</svg>
